<svg width="24" height="8" viewBox="0 0 24 8" fill="none" xmlns="http://www.w3.org/2000/svg"><ellipse cx="6.2728" cy="3.84222" rx="2.38547" ry="2.94671" fill="#383434"></ellipse><ellipse cx="6.34127" cy="2.60995" rx="1.01302" ry="1.01302" fill="white"></ellipse><path d="M0.889893 1.58015C1.73187 2.21889 2.4353 2.25607 3.10974 2.06215M3.10974 2.06215C2.92229 2.10296 2.33393 1.82636 1.99101 1.34279M3.10974 2.06215C3.37743 1.98517 3.64055 1.8718 3.90596 1.74517M3.90596 1.74517C4.47584 1.47329 5.05624 1.14036 5.71497 0.97569C7.10574 0.628036 8.12135 1.74517 8.56741 2.27152C8.66686 2.38887 8.91228 2.64575 9.17726 2.76521C8.01222 2.76521 7.55908 1.20263 6.30037 1.20263C5.04165 1.20263 4.57765 2.16519 3.5455 2.35708C3.10052 2.43981 2.44965 2.2424 1.99101 2.11939M3.90596 1.74517C3.65546 1.79261 3.10974 1.58015 2.86004 1.20263" stroke="#383434" stroke-width="0.597529" stroke-linecap="round" stroke-linejoin="round"></path><ellipse rx="2.38547" ry="2.94671" transform="matrix(-1 0 0 1 17.911 3.71496)" fill="#383434"></ellipse><ellipse rx="1.01302" ry="1.01302" transform="matrix(-1 0 0 1 17.8424 2.48275)" fill="white"></ellipse><path d="M23.2938 1.45295C22.4518 2.09169 21.7484 2.12887 21.074 1.93495M21.074 1.93495C21.2614 1.97577 21.8498 1.69916 22.1927 1.2156M21.074 1.93495C20.8063 1.85798 20.5432 1.7446 20.2778 1.61798M20.2778 1.61798C19.7079 1.3461 19.1275 1.01316 18.4687 0.848492C17.078 0.500839 16.0624 1.61798 15.6163 2.14432C15.5169 2.26167 15.2714 2.51855 15.0065 2.63801C16.1715 2.63801 16.6246 1.07543 17.8833 1.07543C19.1421 1.07543 19.6061 2.038 20.6382 2.22988C21.0832 2.31261 21.7341 2.1152 22.1927 1.99219M20.2778 1.61798C20.5283 1.66541 21.074 1.45295 21.3237 1.07543" stroke="#383434" stroke-width="0.610257" stroke-linecap="round" stroke-linejoin="round"></path></svg>