<svg width="27" height="6" viewBox="0 0 27 6" fill="none" xmlns="http://www.w3.org/2000/svg"><path d="M2.24854 4.47314C3.91244 3.64467 5.80478 2.42311 10.1127 4.32138C10.1519 4.33864 10.1994 4.33286 10.2282 4.3005C10.4253 4.07862 10.8259 3.38972 10.6214 3.07076C8.29302 1.37598 3.34981 1.51432 2.10733 4.34572C2.06802 4.4353 2.16006 4.51719 2.24854 4.47314Z" fill="#383434"></path><path d="M24.6081 4.44C22.9463 3.6323 21.2574 2.24786 16.999 4.24549C16.9602 4.26368 16.9123 4.25911 16.8825 4.22768C16.6856 4.01976 16.3046 3.40108 16.5207 3.03691C18.6225 1.27617 23.4433 1.4986 24.7459 4.31091C24.787 4.39966 24.697 4.48321 24.6081 4.44Z" fill="#383434"></path></svg>