<svg width="29" height="7" viewBox="0 0 29 7" fill="none" xmlns="http://www.w3.org/2000/svg"><path d="M26.2512 6.11873C23.6662 4.33122 18.2517 4.36601 16.8969 5.21657C16.8232 5.26287 16.7146 5.22598 16.6935 5.14151C16.5895 4.72523 16.4147 4.02478 16.7881 3.82046C18.9463 2.63953 23.9543 3.08236 26.4154 4.83803C26.5456 4.93088 26.4676 5.74409 26.3911 6.07178C26.3759 6.13688 26.3062 6.15675 26.2512 6.11873Z" fill="#383434"></path><path d="M2.72035 5.96968C5.43061 4.36716 10.812 4.24282 12.1015 5.14276C12.1729 5.19259 12.2827 5.16339 12.306 5.07951C12.4234 4.65787 12.5946 3.92211 12.2369 3.68984C10.1735 2.35014 5.15937 3.0476 2.57328 4.61343C2.43587 4.69663 2.51213 5.56989 2.58103 5.9134C2.59418 5.97894 2.66281 6.0037 2.72035 5.96968Z" fill="#383434"></path></svg>