<svg width="27" height="15" viewBox="0 0 27 15" fill="none" xmlns="http://www.w3.org/2000/svg"><path d="M19.4225 8.72984L19.4111 8.73797L19.4003 8.74682C19.2474 8.87189 18.9865 9.00436 18.6089 9.12872C18.2378 9.25093 17.7826 9.35618 17.265 9.44194C16.23 9.61341 14.9771 9.70189 13.7139 9.70351C12.4507 9.70513 11.191 9.61988 10.1424 9.44914C9.61809 9.36375 9.15402 9.25817 8.77233 9.13453C8.39807 9.0133 8.12795 8.88254 7.95793 8.75461C7.59026 8.38972 7.22506 7.74584 6.95546 6.94315C6.70952 6.21091 6.55524 5.38206 6.54338 4.58178C9.30761 5.39336 11.5256 5.7773 13.7261 5.76136C15.9209 5.74546 18.0738 5.33184 20.7069 4.57827C20.6829 5.33146 20.5127 6.23326 20.2676 7.02706C20.1318 7.46679 19.9768 7.86086 19.8189 8.16876C19.653 8.49209 19.5104 8.66691 19.4225 8.72984Z" fill="white" stroke="#383434" stroke-width="0.869221"></path><path d="M20.6024 6.24457C20.2313 6.66437 17.9414 7.30199 16.3388 7.60386C16.2581 7.61906 16.2646 7.71686 16.3466 7.71523C17.6981 7.68846 19.6897 7.3248 19.6897 7.69977C20.1069 7.25928 20.5589 6.58543 20.6024 6.24457Z" fill="#383434"></path><path d="M6.66645 6.24457C7.03676 6.66345 9.07776 7.2992 10.626 7.60188C10.7066 7.61763 10.7 7.71677 10.6179 7.71491C9.32872 7.68569 7.57914 7.32623 7.57914 7.69977C7.16191 7.25928 6.70991 6.58543 6.66645 6.24457Z" fill="#383434"></path><path d="M5.72995 3.99464C5.76167 3.82354 5.934 3.7078 6.12416 3.72989L7.13608 3.84743C7.46397 3.88552 7.58237 4.26918 7.32051 4.44505L6.13977 5.23802C5.87791 5.41389 5.50642 5.20019 5.56112 4.90515L5.72995 3.99464Z" fill="#383434"></path><path d="M21.1412 3.62213C21.3241 3.60102 21.491 3.70787 21.53 3.87092L21.7336 4.72315C21.8044 5.01937 21.4344 5.25002 21.165 5.07763L20.0056 4.33574C19.7362 4.16335 19.8532 3.77082 20.1854 3.73247L21.1412 3.62213Z" fill="#383434"></path><path fill-rule="evenodd" clip-rule="evenodd" d="M4.71619 11.2418C4.71619 12.2029 6.26882 14.1932 7.5209 14.372C8.77297 14.5509 16.0919 14.4466 19.8928 14.372C20.9362 13.8503 22.3794 12.2887 22.3794 11.2418V3.99413C20.2341 3.42495 15.4265 2.31775 15.4265 2.31775C14.1552 3.04748 13.4687 3.2191 11.872 2.31775L4.71619 3.99413V11.2418ZM6.98144 6.71744L8.00419 10.8602L11.4922 11.4981C13.0391 10.6775 15.0781 10.6775 16.6274 11.4981L19.5624 10.8602C19.9311 9.22775 20.4633 6.27121 20.4633 6.27121C20.0655 5.13903 16.9722 5.31226 14.9963 5.42292C14.5175 5.44973 14.1043 5.47287 13.811 5.47287C13.5868 5.47287 13.286 5.4622 12.9352 5.44976C10.9332 5.37873 7.30213 5.2499 6.98144 6.71744Z" fill="#6A4C1E"></path><path d="M7.5209 14.372L7.59192 13.8748H7.59192L7.5209 14.372ZM19.8928 14.372L19.9026 14.8742C19.9773 14.8727 20.0506 14.8546 20.1174 14.8212L19.8928 14.372ZM22.3794 3.99413H22.8817C22.8817 3.76636 22.7284 3.56711 22.5082 3.5087L22.3794 3.99413ZM15.4265 2.31775L15.5392 1.82833C15.4158 1.79992 15.2863 1.81915 15.1764 1.88218L15.4265 2.31775ZM11.872 2.31775L12.1189 1.88039C12.0091 1.81845 11.8801 1.80002 11.7574 1.82876L11.872 2.31775ZM4.71619 3.99413L4.60163 3.50515C4.37454 3.55835 4.21396 3.76089 4.21396 3.99413H4.71619ZM8.00419 10.8602L7.51661 10.9806C7.56397 11.1725 7.71945 11.3187 7.91385 11.3543L8.00419 10.8602ZM6.98144 6.71744L6.49079 6.61022C6.47438 6.68532 6.47542 6.76318 6.49385 6.83781L6.98144 6.71744ZM11.4922 11.4981L11.4018 11.9921C11.513 12.0124 11.6277 11.9947 11.7275 11.9418L11.4922 11.4981ZM16.6274 11.4981L16.3924 11.9419C16.4972 11.9974 16.6182 12.014 16.7341 11.9889L16.6274 11.4981ZM19.5624 10.8602L19.6691 11.351C19.8598 11.3095 20.0093 11.1613 20.0523 10.9709L19.5624 10.8602ZM20.4633 6.27121L20.9576 6.36018C20.973 6.27469 20.9659 6.18668 20.9371 6.10473L20.4633 6.27121ZM14.9963 5.42292L14.9682 4.92148L14.9963 5.42292ZM12.9352 5.44976L12.9174 5.95167L12.9352 5.44976ZM7.59192 13.8748C7.38635 13.8455 7.12949 13.7335 6.84383 13.5322C6.56297 13.3341 6.28198 13.0691 6.0315 12.7748C5.78109 12.4805 5.57096 12.1685 5.42597 11.8835C5.27505 11.5869 5.21841 11.366 5.21841 11.2418H4.21396C4.21396 11.5982 4.3514 11.9865 4.53073 12.339C4.71598 12.7031 4.97227 13.08 5.26653 13.4257C5.56072 13.7715 5.90265 14.0976 6.26505 14.3531C6.62266 14.6052 7.02941 14.8091 7.44987 14.8692L7.59192 13.8748ZM19.883 13.8699C17.9837 13.9071 15.2063 13.9518 12.7484 13.9648C11.5191 13.9713 10.372 13.9699 9.45546 13.9558C8.52449 13.9414 7.86699 13.9141 7.59192 13.8748L7.44987 14.8692C7.80084 14.9193 8.52773 14.9461 9.43998 14.9601C10.3666 14.9744 11.5216 14.9758 12.7537 14.9693C15.2184 14.9562 18.001 14.9114 19.9026 14.8742L19.883 13.8699ZM21.8772 11.2418C21.8772 11.3956 21.8216 11.6095 21.6889 11.8738C21.5588 12.1327 21.3697 12.41 21.1424 12.6814C20.682 13.231 20.1121 13.7009 19.6682 13.9228L20.1174 14.8212C20.7169 14.5215 21.3903 13.9497 21.9124 13.3264C22.1763 13.0113 22.4133 12.6693 22.5864 12.3247C22.7568 11.9854 22.8817 11.6115 22.8817 11.2418H21.8772ZM21.8772 3.99413V11.2418H22.8817V3.99413H21.8772ZM15.4265 2.31775C15.3138 2.80717 15.3138 2.80717 15.3138 2.80718C15.3138 2.80719 15.3139 2.8072 15.314 2.80721C15.3141 2.80725 15.3143 2.8073 15.3146 2.80736C15.3152 2.80749 15.316 2.80769 15.3172 2.80796C15.3195 2.80849 15.3229 2.80928 15.3275 2.81033C15.3366 2.81244 15.3502 2.81557 15.368 2.81968C15.4037 2.82791 15.4563 2.84006 15.524 2.85574C15.6595 2.88708 15.8555 2.93251 16.0974 2.9888C16.5812 3.10139 17.2485 3.25743 17.9828 3.43122C19.4535 3.77932 21.1855 4.19695 22.2506 4.47957L22.5082 3.5087C21.4281 3.22213 19.6836 2.80157 18.2141 2.45377C17.4783 2.27962 16.8097 2.12328 16.325 2.01049C16.0827 1.95409 15.8863 1.90856 15.7505 1.87713C15.6825 1.86142 15.6298 1.84923 15.5939 1.84096C15.576 1.83683 15.5624 1.83367 15.5532 1.83155C15.5486 1.83049 15.5451 1.82969 15.5427 1.82915C15.5416 1.82888 15.5407 1.82868 15.5401 1.82854C15.5398 1.82847 15.5396 1.82842 15.5394 1.82839C15.5393 1.82837 15.5393 1.82836 15.5393 1.82835C15.5392 1.82834 15.5392 1.82833 15.4265 2.31775ZM11.6251 2.75511C12.4539 3.22297 13.1233 3.45827 13.7916 3.43122C14.4536 3.40443 15.0354 3.1213 15.6765 2.75332L15.1764 1.88218C14.5463 2.24393 14.1492 2.41147 13.751 2.42759C13.3591 2.44345 12.8868 2.31389 12.1189 1.88039L11.6251 2.75511ZM4.83074 4.48312L11.9865 2.80674L11.7574 1.82876L4.60163 3.50515L4.83074 4.48312ZM5.21841 11.2418V3.99413H4.21396V11.2418H5.21841ZM8.49178 10.7398L7.46902 6.59707L6.49385 6.83781L7.51661 10.9806L8.49178 10.7398ZM11.5825 11.0041L8.09454 10.3662L7.91385 11.3543L11.4018 11.9921L11.5825 11.0041ZM16.8625 11.0543C15.1662 10.1559 12.951 10.1557 11.2568 11.0544L11.7275 11.9418C13.1271 11.1993 14.9899 11.1992 16.3924 11.9419L16.8625 11.0543ZM19.4558 10.3694L16.5208 11.0073L16.7341 11.9889L19.6691 11.351L19.4558 10.3694ZM20.4633 6.27121C19.969 6.18223 19.969 6.18224 19.969 6.18225C19.969 6.18228 19.969 6.1823 19.969 6.18234C19.969 6.18243 19.969 6.18255 19.9689 6.18272C19.9689 6.18307 19.9688 6.18359 19.9687 6.18429C19.9684 6.18568 19.968 6.18778 19.9675 6.19057C19.9665 6.19615 19.965 6.20448 19.963 6.21544C19.9591 6.23735 19.9532 6.26976 19.9456 6.31163C19.9304 6.39536 19.9082 6.51688 19.8805 6.66785C19.8249 6.96983 19.7471 7.38942 19.6577 7.85983C19.4787 8.80268 19.2548 9.94252 19.0725 10.7496L20.0523 10.9709C20.2387 10.1455 20.4653 8.99078 20.6445 8.04725C20.7343 7.57446 20.8126 7.15289 20.8683 6.84949C20.8962 6.69778 20.9185 6.57557 20.9339 6.49124C20.9415 6.44907 20.9474 6.41637 20.9515 6.39418C20.9535 6.38308 20.955 6.37461 20.956 6.3689C20.9565 6.36605 20.9569 6.36388 20.9572 6.36242C20.9573 6.36169 20.9574 6.36114 20.9575 6.36076C20.9575 6.36058 20.9576 6.36043 20.9576 6.36034C20.9576 6.36029 20.9576 6.36025 20.9576 6.36022C20.9576 6.3602 20.9576 6.36018 20.4633 6.27121ZM15.0244 5.92436C16.0204 5.86858 17.2522 5.80045 18.2821 5.88167C18.7988 5.92241 19.2305 5.99864 19.5429 6.11574C19.8658 6.23679 19.9632 6.3628 19.9895 6.43768L20.9371 6.10473C20.7646 5.61352 20.3261 5.33662 19.8954 5.17519C19.4542 5.0098 18.9145 4.92397 18.3611 4.88033C17.251 4.79278 15.9482 4.8666 14.9682 4.92148L15.0244 5.92436ZM13.811 5.9751C14.1218 5.9751 14.5519 5.95083 15.0244 5.92436L14.9682 4.92148C14.4832 4.94864 14.0868 4.97065 13.811 4.97065V5.9751ZM12.9174 5.95167C13.2645 5.96398 13.5758 5.9751 13.811 5.9751V4.97065C13.5978 4.97065 13.3075 4.96042 12.953 4.94785L12.9174 5.95167ZM7.47209 6.82466C7.50456 6.67606 7.62888 6.50712 7.97667 6.34592C8.32295 6.18541 8.80858 6.07409 9.38708 6.00535C10.5399 5.86838 11.9083 5.91587 12.9174 5.95167L12.953 4.94785C11.9601 4.91262 10.512 4.86017 9.26856 5.00791C8.64896 5.08154 8.04157 5.20873 7.55427 5.4346C7.06848 5.65976 6.61866 6.02505 6.49079 6.61022L7.47209 6.82466Z" fill="#3B2607"></path></svg>