<svg width="39" height="27" viewBox="0 0 39 27" fill="none" xmlns="http://www.w3.org/2000/svg"><path fill-rule="evenodd" clip-rule="evenodd" d="M14.5211 26.1728C16.5827 26.4174 24.7144 26.6893 26.893 26.1728C29.0715 25.6564 36.4647 22.0863 36.4647 22.0863C36.1525 19.1414 37.1238 9.77727 37.6176 5.01723C37.7775 3.47633 37.8873 2.4179 37.8873 2.2159C37.8873 1.55509 37.2448 0.808671 36.9236 0.518066L34.7108 20.0932L29.3796 22.0863V16.8199C27.2343 16.2507 22.2979 16.0744 22.2979 16.0744C21.0266 16.8041 20.3401 16.9757 18.7434 16.0744L11.7164 16.8199V22.0863L4.7089 20.5718L2.31062 0.518066C1.95769 0.753506 1.25183 1.42269 1.25183 2.2159C1.25183 2.44732 1.38528 3.83723 1.57432 5.80602C2.0332 10.5853 2.81961 18.7758 2.81961 22.0863C2.81961 22.0863 12.4594 25.9283 14.5211 26.1728ZM13.9814 18.9832V22.4875L18.4921 23.7532L20.9913 23.0813L23.6274 23.7532L27.4633 22.4875V18.5289C26.5187 18.0566 25.0054 18.4435 23.4833 18.8326C22.4537 19.0959 21.4201 19.3601 20.5559 19.3601C19.5854 19.3601 18.6124 19.1522 17.6946 18.9561C16.2429 18.646 14.9291 18.3653 13.9814 18.9832Z" fill="#6A4C1E"></path><path d="M26.893 26.1728L27.0088 26.6615L26.893 26.1728ZM36.4647 22.0863L36.6831 22.5386C36.874 22.4464 36.9865 22.2442 36.9641 22.0333L36.4647 22.0863ZM37.6176 5.01723L37.1181 4.9654V4.96541L37.6176 5.01723ZM36.9236 0.518066L37.2605 0.145629C37.1208 0.0192624 36.9222 -0.0183204 36.746 0.048285C36.5698 0.114891 36.4457 0.274485 36.4245 0.461654L36.9236 0.518066ZM34.7108 20.0932L34.8867 20.5636C35.0637 20.4974 35.1886 20.3374 35.2099 20.1496L34.7108 20.0932ZM29.3796 22.0863H28.8774C28.8774 22.2509 28.9581 22.4051 29.0933 22.4989C29.2286 22.5928 29.4013 22.6144 29.5555 22.5567L29.3796 22.0863ZM29.3796 16.8199H29.8818C29.8818 16.5921 29.7286 16.3929 29.5084 16.3345L29.3796 16.8199ZM22.2979 16.0744L22.3158 15.5725C22.2221 15.5691 22.1292 15.5921 22.0479 15.6388L22.2979 16.0744ZM18.7434 16.0744L18.9903 15.637C18.8992 15.5856 18.7944 15.5639 18.6904 15.575L18.7434 16.0744ZM11.7164 16.8199L11.6634 16.3205C11.408 16.3476 11.2141 16.563 11.2141 16.8199H11.7164ZM11.7164 22.0863L11.6103 22.5772C11.7587 22.6093 11.9136 22.5725 12.0318 22.4771C12.1499 22.3818 12.2186 22.2381 12.2186 22.0863H11.7164ZM4.7089 20.5718L4.21023 20.6315C4.23568 20.8443 4.39334 21.0175 4.60281 21.0627L4.7089 20.5718ZM2.31062 0.518066L2.8093 0.458429C2.78857 0.2851 2.67933 0.134968 2.52078 0.0619221C2.36223 -0.0111235 2.17713 0.00339675 2.03191 0.100271L2.31062 0.518066ZM1.57432 5.80602L2.07425 5.75802L1.57432 5.80602ZM2.81961 22.0863H2.31738C2.31738 22.2919 2.44268 22.4767 2.63367 22.5528L2.81961 22.0863ZM13.9814 22.4875H13.4791C13.4791 22.7126 13.6289 22.9102 13.8457 22.9711L13.9814 22.4875ZM13.9814 18.9832L13.7071 18.5625C13.5649 18.6552 13.4791 18.8135 13.4791 18.9832H13.9814ZM18.4921 23.7532L18.3564 24.2367C18.4434 24.2611 18.5353 24.2616 18.6225 24.2382L18.4921 23.7532ZM20.9913 23.0813L21.1154 22.5946C21.0318 22.5734 20.9442 22.5739 20.861 22.5963L20.9913 23.0813ZM23.6274 23.7532L23.5033 24.2398C23.5961 24.2635 23.6938 24.2601 23.7847 24.2301L23.6274 23.7532ZM27.4633 22.4875L27.6206 22.9644C27.8264 22.8965 27.9655 22.7042 27.9655 22.4875H27.4633ZM27.4633 18.5289H27.9655C27.9655 18.3386 27.858 18.1647 27.6879 18.0796L27.4633 18.5289ZM23.4833 18.8326L23.6077 19.3192L23.4833 18.8326ZM17.6946 18.9561L17.5897 19.4473L17.6946 18.9561ZM26.7771 25.6842C26.2851 25.8008 25.4127 25.8799 24.311 25.9233C23.2219 25.9661 21.9462 25.973 20.6698 25.956C18.1103 25.9221 15.5837 25.7932 14.5802 25.6741L14.4619 26.6716C15.5201 26.7971 18.0902 26.9264 20.6565 26.9604C21.9432 26.9775 23.2377 26.9707 24.3505 26.927C25.4505 26.8837 26.4115 26.8031 27.0088 26.6615L26.7771 25.6842ZM36.4647 22.0863C36.2463 21.634 36.2463 21.634 36.2462 21.6341C36.2462 21.6341 36.2461 21.6341 36.246 21.6342C36.2458 21.6343 36.2455 21.6344 36.245 21.6346C36.2442 21.6351 36.2429 21.6357 36.2411 21.6365C36.2376 21.6382 36.2324 21.6407 36.2254 21.6441C36.2115 21.6508 36.1908 21.6608 36.1636 21.6738C36.1092 21.7 36.0291 21.7384 35.9262 21.7876C35.7205 21.8859 35.424 22.027 35.0613 22.1979C34.3358 22.5399 33.3462 23.0011 32.2892 23.4781C30.1509 24.4432 27.8086 25.4397 26.7771 25.6842L27.0088 26.6615C28.1559 26.3896 30.5995 25.3428 32.7024 24.3937C33.766 23.9137 34.7608 23.45 35.4896 23.1065C35.8541 22.9347 36.1522 22.7928 36.3593 22.6939C36.4628 22.6444 36.5437 22.6056 36.5986 22.5792C36.6261 22.566 36.6472 22.5559 36.6614 22.549C36.6685 22.5456 36.6739 22.543 36.6775 22.5412C36.6793 22.5404 36.6807 22.5397 36.6816 22.5393C36.6821 22.539 36.6824 22.5389 36.6827 22.5387C36.6828 22.5387 36.6829 22.5386 36.683 22.5386C36.683 22.5386 36.6831 22.5386 36.4647 22.0863ZM37.1181 4.96541C36.8713 7.34467 36.5044 10.8814 36.2383 14.1922C35.9739 17.4819 35.8032 20.6106 35.9653 22.1392L36.9641 22.0333C36.814 20.6172 36.9728 17.5913 37.2395 14.2727C37.5045 10.9752 37.8702 7.44983 38.1172 5.06905L37.1181 4.96541ZM37.385 2.2159C37.385 2.28538 37.3615 2.56739 37.3126 3.06534C37.2653 3.54615 37.1981 4.19439 37.1181 4.9654L38.1172 5.06905C38.197 4.29916 38.2646 3.64774 38.3122 3.16361C38.3581 2.69663 38.3895 2.34842 38.3895 2.2159H37.385ZM36.5867 0.890504C36.7196 1.01075 36.9315 1.23815 37.1062 1.50396C37.2883 1.78116 37.385 2.03235 37.385 2.2159H38.3895C38.3895 1.73863 38.165 1.28621 37.9456 0.952351C37.7187 0.607097 37.4488 0.315984 37.2605 0.145629L36.5867 0.890504ZM35.2099 20.1496L37.4226 0.574479L36.4245 0.461654L34.2118 20.0367L35.2099 20.1496ZM29.5555 22.5567L34.8867 20.5636L34.5349 19.6227L29.2037 21.6159L29.5555 22.5567ZM28.8774 16.8199V22.0863H29.8818V16.8199H28.8774ZM22.2979 16.0744C22.28 16.5763 22.28 16.5763 22.28 16.5763C22.28 16.5763 22.28 16.5763 22.2801 16.5763C22.2802 16.5763 22.2804 16.5763 22.2807 16.5763C22.2812 16.5763 22.282 16.5764 22.2832 16.5764C22.2854 16.5765 22.2888 16.5766 22.2934 16.5768C22.3025 16.5771 22.3162 16.5777 22.3343 16.5784C22.3704 16.5798 22.4239 16.5819 22.4928 16.5849C22.6307 16.5907 22.8305 16.5998 23.077 16.6124C23.5704 16.6377 24.25 16.6773 24.9959 16.7345C26.5025 16.85 28.2289 17.0342 29.2508 17.3053L29.5084 16.3345C28.385 16.0364 26.5706 15.8478 25.0727 15.7329C24.3162 15.6749 23.6277 15.6348 23.1284 15.6093C22.8787 15.5965 22.676 15.5873 22.5356 15.5813C22.4654 15.5783 22.4107 15.5761 22.3734 15.5747C22.3548 15.5739 22.3405 15.5734 22.3308 15.573C22.326 15.5729 22.3223 15.5727 22.3198 15.5726C22.3185 15.5726 22.3176 15.5725 22.3169 15.5725C22.3166 15.5725 22.3163 15.5725 22.3161 15.5725C22.3161 15.5725 22.316 15.5725 22.3159 15.5725C22.3159 15.5725 22.3158 15.5725 22.2979 16.0744ZM18.4965 16.5117C19.3253 16.9796 19.9947 17.2149 20.663 17.1879C21.325 17.1611 21.9069 16.8779 22.5479 16.51L22.0479 15.6388C21.4177 16.0006 21.0206 16.1681 20.6224 16.1842C20.2305 16.2001 19.7582 16.0705 18.9903 15.637L18.4965 16.5117ZM11.7693 17.3193L18.7964 16.5738L18.6904 15.575L11.6634 16.3205L11.7693 17.3193ZM12.2186 22.0863V16.8199H11.2141V22.0863H12.2186ZM4.60281 21.0627L11.6103 22.5772L11.8225 21.5954L4.81499 20.0809L4.60281 21.0627ZM1.81195 0.577704L4.21023 20.6315L5.20758 20.5122L2.8093 0.458429L1.81195 0.577704ZM1.75406 2.2159C1.75406 1.96746 1.86671 1.7059 2.05153 1.458C2.2348 1.21217 2.45621 1.02467 2.58934 0.935862L2.03191 0.100271C1.81211 0.2469 1.50412 0.511716 1.24623 0.857638C0.989884 1.20149 0.749603 1.67113 0.749603 2.2159H1.75406ZM2.07425 5.75802C1.97968 4.77316 1.89919 3.93479 1.84232 3.31366C1.78387 2.67517 1.75406 2.30201 1.75406 2.2159H0.749603C0.749603 2.36121 0.786521 2.79871 0.84205 3.40524C0.899168 4.02911 0.979915 4.87009 1.07439 5.85402L2.07425 5.75802ZM3.32184 22.0863C3.32184 18.7449 2.5316 10.5214 2.07425 5.75802L1.07439 5.85402C1.5348 10.6492 2.31738 18.8067 2.31738 22.0863H3.32184ZM14.5802 25.6741C14.1245 25.62 13.1851 25.3525 11.9806 24.9543C10.7953 24.5625 9.40357 24.0617 8.07212 23.5671C6.74142 23.0727 5.47453 22.5858 4.54008 22.2223C4.07294 22.0407 3.68907 21.8899 3.42209 21.7846C3.2886 21.732 3.18434 21.6907 3.11351 21.6626C3.0781 21.6486 3.05105 21.6379 3.03288 21.6306C3.02379 21.627 3.01693 21.6243 3.01235 21.6225C3.01006 21.6216 3.00835 21.6209 3.00721 21.6204C3.00664 21.6202 3.00622 21.62 3.00594 21.6199C3.0058 21.6199 3.0057 21.6198 3.00563 21.6198C3.00557 21.6198 3.00555 21.6198 2.81961 22.0863C2.63367 22.5528 2.63372 22.5529 2.6338 22.5529C2.63388 22.5529 2.634 22.553 2.63416 22.553C2.63446 22.5532 2.63492 22.5533 2.63552 22.5536C2.63672 22.5541 2.6385 22.5548 2.64085 22.5557C2.64556 22.5576 2.65255 22.5604 2.66177 22.564C2.68021 22.5713 2.70753 22.5822 2.74323 22.5964C2.81462 22.6247 2.91948 22.6662 3.0536 22.7191C3.32185 22.8249 3.7072 22.9762 4.176 23.1585C5.11344 23.5231 6.38535 24.0119 7.72231 24.5086C9.05852 25.0051 10.4633 25.5106 11.6653 25.908C12.8481 26.299 13.8869 26.6034 14.4619 26.6716L14.5802 25.6741ZM14.4836 22.4875V18.9832H13.4791V22.4875H14.4836ZM18.6278 23.2696L14.117 22.004L13.8457 22.9711L18.3564 24.2367L18.6278 23.2696ZM20.861 22.5963L18.3617 23.2681L18.6225 24.2382L21.1217 23.5663L20.861 22.5963ZM23.7514 23.2665L21.1154 22.5946L20.8673 23.568L23.5033 24.2398L23.7514 23.2665ZM27.3059 22.0106L23.47 23.2762L23.7847 24.2301L27.6206 22.9644L27.3059 22.0106ZM26.961 18.5289V22.4875H27.9655V18.5289H26.961ZM23.6077 19.3192C24.3767 19.1226 25.1032 18.9377 25.7525 18.856C26.4113 18.7732 26.9026 18.81 27.2387 18.9781L27.6879 18.0796C27.0794 17.7754 26.3417 17.7696 25.6272 17.8594C24.9032 17.9505 24.112 18.1535 23.3589 18.3461L23.6077 19.3192ZM20.5559 19.8624C21.4967 19.8624 22.5981 19.5773 23.6077 19.3192L23.3589 18.3461C22.3093 18.6144 21.3434 18.8579 20.5559 18.8579V19.8624ZM17.5897 19.4473C18.4984 19.6414 19.5234 19.8624 20.5559 19.8624V18.8579C19.6474 18.8579 18.7265 18.663 17.7996 18.465L17.5897 19.4473ZM14.2557 19.4039C14.6055 19.1758 15.0496 19.0943 15.6237 19.1232C16.2039 19.1525 16.8533 19.2899 17.5897 19.4473L17.7996 18.465C17.0842 18.3122 16.3509 18.1542 15.6743 18.12C14.9916 18.0856 14.305 18.1726 13.7071 18.5625L14.2557 19.4039Z" fill="#3B2607"></path><path d="M17.2001 21.1687C18.7433 21.3807 22.3441 21.5502 24.4019 20.533" stroke="#3B2607" stroke-width="1.53741" stroke-linecap="round" stroke-linejoin="round"></path></svg>