<svg width="27" height="12" viewBox="0 0 27 12" fill="none" xmlns="http://www.w3.org/2000/svg"><path d="M11.6493 3.27005C10.9361 3.22547 9.5691 4.44012 8.97475 5.05301C7.43322 4.45869 4.84047 3.96096 6.80175 6.7246C9.25335 10.1791 10.7533 11.8955 13.878 11.8955C17.7868 11.8955 21.0656 6.7246 21.2885 6.1117C21.4668 5.62138 20.2856 5.42451 19.6727 5.38736C18.7997 4.68159 16.8533 3.27005 16.051 3.27005C15.048 3.27005 14.3794 4.273 13.878 4.273C13.3765 4.273 12.5407 3.32579 11.6493 3.27005Z" fill="#E22525"></path><path d="M14.0791 9.9356C11.8091 10.2599 7.59313 6.5575 5.76892 4.66577C10.6235 6.20003 18.1593 5.73865 21.7812 4.66577C20.9705 6.28728 16.9167 9.53025 14.0791 9.9356Z" fill="white" stroke="#383434" stroke-width="1.08829" stroke-linejoin="round"></path></svg>