<svg width="27" height="12" viewBox="0 0 27 12" fill="none" xmlns="http://www.w3.org/2000/svg"><path d="M21.706 2.22046L6.16101 4.76884C6.16101 4.76884 7.58734 9.14616 9.50381 10.6303C11.4203 12.1145 19.7838 10.4486 20.7449 8.80793C21.706 7.16726 21.706 4.16417 21.706 2.22046Z" fill="#383434"></path><path d="M21.9772 4.59824L7.07251 6.82807L6.13391 4.59824L21.3902 2.48602L21.9772 4.59824Z" fill="white"></path><path d="M12.2611 10.8849C12.9296 8.67564 15.336 5.27078 19.6136 9.32559C18.7224 10.1238 16.0042 11.5531 12.2611 10.8849Z" fill="#E22525"></path><path d="M20.7449 8.80793C21.706 7.16726 21.706 4.16417 21.706 2.22046C21.706 2.22046 17.0043 3.48144 13.9427 3.97925C10.881 4.47706 6.16101 4.76884 6.16101 4.76884C6.16101 4.76884 7.58734 9.14616 9.50381 10.6303C11.4203 12.1145 19.7838 10.4486 20.7449 8.80793Z" stroke="#383434" stroke-width="1.32062"></path><path d="M21.9067 2.58053C21.6768 2.57064 21.4926 2.38648 21.4827 2.15654L21.4261 0.840125C21.4087 0.436139 21.8968 0.221543 22.1827 0.507469L23.5558 1.88055C23.8417 2.16648 23.6271 2.65459 23.2231 2.6372L21.9067 2.58053Z" fill="#383434"></path><path d="M6.21088 4.51249C6.22465 4.74223 6.06038 4.94432 5.83267 4.97777L4.52903 5.16932C4.12896 5.2281 3.86538 4.7646 4.12044 4.45083L5.34527 2.94401C5.60032 2.63023 6.10789 2.79357 6.13208 3.19721L6.21088 4.51249Z" fill="#383434"></path></svg>