<svg width="27" height="11" viewBox="0 0 27 11" fill="none" xmlns="http://www.w3.org/2000/svg"><path d="M19.8742 8.9241L19.8613 8.93504L19.849 8.94682C19.6831 9.10678 19.4015 9.27548 18.9917 9.43462C18.588 9.59135 18.0909 9.72702 17.5233 9.83788C16.3884 10.0596 15.0119 10.1744 13.6223 10.1765C12.2327 10.1786 10.8487 10.068 9.69873 9.84719C8.5382 9.62439 7.71309 9.30656 7.31897 8.9569C6.90703 8.47515 6.49752 7.62284 6.19623 6.56279C5.91961 5.58954 5.74688 4.48548 5.73743 3.41927C8.7647 4.46227 11.208 4.95844 13.6363 4.93779C16.0577 4.91718 18.4293 4.38283 21.3121 3.41397C21.2894 4.41508 21.0986 5.61541 20.8235 6.66819C20.6722 7.24704 20.4989 7.76777 20.3214 8.17618C20.1344 8.60656 19.9721 8.84147 19.8742 8.9241Z" fill="white" stroke="#383434" stroke-width="1.02384"></path><path fill-rule="evenodd" clip-rule="evenodd" d="M22.2688 2.52603C22.2239 2.31829 22.0275 2.17943 21.8167 2.20633L20.6097 2.36032C20.2392 2.40757 20.1201 2.88535 20.425 3.10094L21.8892 4.13627C22.1941 4.35187 22.6048 4.08033 22.5259 3.71534L22.2688 2.52603ZM4.78101 2.68464C4.81742 2.46764 5.0188 2.31819 5.23704 2.3462L6.50682 2.50919C6.8725 2.55613 6.9948 3.02454 6.69875 3.24426L5.21712 4.34382C4.92106 4.56354 4.50816 4.31079 4.56917 3.94719L4.78101 2.68464ZM10.6114 7.40076C8.78044 7.0126 6.32453 6.17197 5.88321 5.62032C5.9344 6.06398 6.4668 6.94107 6.95824 7.51442C6.95824 7.19182 7.8655 7.28925 8.91964 7.40245C9.47642 7.46225 10.0742 7.52644 10.6009 7.53546C10.6963 7.5371 10.7048 7.42056 10.6114 7.40076ZM16.1338 7.40283C18.024 7.01559 20.7779 6.17295 21.22 5.62032C21.1688 6.06398 20.6364 6.94107 20.1449 7.51442C20.1449 7.18871 19.1002 7.29117 17.9321 7.40573C17.3263 7.46514 16.6874 7.5278 16.1437 7.5357C16.0483 7.53709 16.0403 7.42199 16.1338 7.40283Z" fill="#383434"></path></svg>