<svg width="77" height="58" viewBox="0 0 77 58" fill="none" xmlns="http://www.w3.org/2000/svg"><path d="M13.998 27.3879H63.3825L60.3113 11.9092L49.2324 5.1861V1.39932C47.2209 0.281769 42.5913 0.388961 38.3159 0.388961C33.7438 0.388961 29.4853 0.21201 27.6224 1.2716V5.1861L17.1921 10.0665L13.998 27.3879Z" fill="#FFDD65"></path><path d="M65.2711 56.5187H11.6376C10.0045 56.5187 8.7809 55.0226 9.10494 53.422L13.7008 30.72C13.7874 30.2923 13.9829 29.8853 14.266 29.5269C15.2286 28.3082 17.2866 25.551 18.2217 23.0767C18.4767 22.4018 18.6607 21.2699 18.805 19.9575C18.9524 18.6167 19.0664 17.0003 19.1549 15.3013C19.332 11.902 19.4086 8.13732 19.4418 5.5148C19.46 4.07991 20.6245 2.92433 22.0513 2.92433H24.208C25.3271 2.92433 26.3542 3.66189 26.8298 4.76766C27.6243 6.61531 28.9098 9.02769 30.7972 10.9888C32.693 12.9585 35.2348 14.5089 38.5048 14.5089C41.683 14.5089 44.0974 13.0438 45.8657 11.1423C47.6221 9.2536 48.7663 6.91215 49.4543 5.05336C49.9186 3.79895 51.0359 2.92433 52.2546 2.92433H54.9442C56.3462 2.92433 57.4946 4.03597 57.542 5.43903C57.6346 8.18435 57.7903 12.2356 58.0038 15.8521C58.1105 17.6596 58.2321 19.3652 58.3681 20.7474C58.5008 22.0967 58.6544 23.2245 58.8459 23.8156C59.196 24.8962 59.8806 26.0367 60.5763 27.025C61.2794 28.0237 62.0291 28.9157 62.5497 29.5045C62.8949 29.895 63.1336 30.3529 63.2315 30.8363L67.8037 53.422C68.1278 55.0226 66.9042 56.5187 65.2711 56.5187Z" fill="white" stroke="#383434" stroke-width="1.53127"></path><path d="M65.9638 9.82739C63.3372 6.09491 61.6571 5.23358 58.0203 5.23358L59.743 13.7513L62.3705 26.9572L66.6337 47.4392C68.7775 44.3766 72.3759 43.4196 75.4385 45.6208C75.4385 45.6208 72.9502 24.2787 72.3759 22.0775C71.8017 19.8763 68.2536 13.0813 65.9638 9.82739Z" fill="#FFDD65" stroke="#383434" stroke-width="1.53127" stroke-linecap="round" stroke-linejoin="round"></path><path d="M10.8669 9.82739C13.4935 6.09491 15.1736 5.23358 18.8104 5.23358L17.0877 13.7513L14.4602 26.9572L10.197 47.4392C8.05323 44.3766 4.45475 43.4196 1.39221 45.6208C1.39221 45.6208 3.88052 24.2787 4.45475 22.0775C5.02897 19.8763 8.57712 13.0813 10.8669 9.82739Z" fill="#FFDD65" stroke="#383434" stroke-width="1.53127" stroke-linecap="round" stroke-linejoin="round"></path><path d="M60.4805 30.6209C60.5308 30.4147 60.4044 30.2067 60.1982 30.1564C59.992 30.1061 59.784 30.2325 59.7337 30.4387L60.4805 30.6209ZM16.4839 30.5966C16.6326 31.4386 16.8405 32.602 17.4885 33.5484C18.1598 34.5289 19.2727 35.2379 21.1224 35.2379V34.4692C19.5061 34.4692 18.6397 33.8691 18.1228 33.1141C17.5825 32.3251 17.3934 31.3265 17.2409 30.4629L16.4839 30.5966ZM21.1224 35.2379C24.5063 35.2379 27.003 34.1061 29.5464 33.0403C32.0901 31.9744 34.7104 30.958 38.4332 31.0622L38.4547 30.2938C34.5612 30.1848 31.815 31.2562 29.2493 32.3313C26.6831 33.4067 24.3271 34.4692 21.1224 34.4692V35.2379ZM38.4332 31.0622C42.164 31.1666 44.5264 32.1846 46.8903 33.1989C49.2681 34.2192 51.6517 35.2379 55.3494 35.2379V34.4692C51.8182 34.4692 49.5571 33.5067 47.1935 32.4925C44.8159 31.4723 42.34 30.4025 38.4547 30.2938L38.4332 31.0622ZM55.3494 35.2379C57.3527 35.2379 58.5776 34.4165 59.3291 33.3998C60.0624 32.4077 60.3265 31.252 60.4805 30.6209L59.7337 30.4387C59.5756 31.0868 59.3392 32.0929 58.7109 32.9429C58.1008 33.7683 57.1029 34.4692 55.3494 34.4692V35.2379Z" fill="#DADADA"></path></svg>