<svg width="77" height="56" viewBox="0 0 77 56" fill="none" xmlns="http://www.w3.org/2000/svg"><path d="M21.4411 0.953806H55.4676C56.6971 0.953806 57.7563 1.82008 58.0002 3.02511L67.8038 51.4515C68.1278 53.0521 66.9042 54.5482 65.2711 54.5482H11.6376C10.0045 54.5482 8.7809 53.0521 9.10494 51.4515L18.9085 3.02511C19.1524 1.82008 20.2116 0.953806 21.4411 0.953806Z" fill="#352F2C" stroke="#383434" stroke-width="1.53127"></path><path d="M65.9638 7.8568C63.3372 4.12433 61.6571 3.263 58.0203 3.263L59.743 11.7807L62.3705 24.9866L66.6337 45.4686C68.7775 42.406 72.3759 41.449 75.4385 43.6502C75.4385 43.6502 72.9502 22.3082 72.3759 20.107C71.8017 17.9058 68.2536 11.1108 65.9638 7.8568Z" fill="#FFDD65" stroke="#383434" stroke-width="1.53127" stroke-linecap="round" stroke-linejoin="round"></path><path d="M10.8669 7.8568C13.4935 4.12433 15.1736 3.263 18.8104 3.263L17.0877 11.7807L14.4602 24.9866L10.197 45.4686C8.05323 42.406 4.45475 41.449 1.39221 43.6502C1.39221 43.6502 3.88052 22.3082 4.45475 20.107C5.02897 17.9058 8.57712 11.1108 10.8669 7.8568Z" fill="#FFDD65" stroke="#383434" stroke-width="1.53127" stroke-linecap="round" stroke-linejoin="round"></path><circle cx="27.0309" cy="3.58378" r="1.91026" fill="white"></circle><circle cx="49.7997" cy="3.58378" r="1.91026" fill="white"></circle><circle cx="28.3411" cy="7.06813" r="1.94875" fill="white"></circle><circle cx="48.2664" cy="7.06813" r="1.94875" fill="white"></circle><circle cx="30.9889" cy="10.359" r="2.32877" fill="white"></circle><circle cx="45.5606" cy="10.359" r="2.32877" fill="white"></circle><circle cx="33.3176" cy="14.6753" r="2.75428" fill="white"></circle><circle cx="43.2318" cy="14.6753" r="2.75428" fill="white"></circle><circle cx="38.2117" cy="18.1565" r="3.33942" fill="white"></circle></svg>