<svg width="77" height="56" viewBox="0 0 77 56" fill="none" xmlns="http://www.w3.org/2000/svg"><path d="M21.4411 1.01289H55.4676C56.6971 1.01289 57.7563 1.87916 58.0002 3.08419L67.8038 51.5105C68.1278 53.1112 66.9042 54.6073 65.2711 54.6073H11.6376C10.0045 54.6073 8.7809 53.1112 9.10494 51.5105L18.9085 3.08419C19.1524 1.87917 20.2116 1.01289 21.4411 1.01289Z" fill="#C4C4C4" stroke="#383434" stroke-width="1.53127"></path><path d="M65.9638 7.91583C63.3372 4.18335 61.6571 3.32202 58.0203 3.32202L59.743 11.8397L62.3705 25.0457L66.6337 45.5276C68.7775 42.4651 72.3759 41.508 75.4385 43.7092C75.4385 43.7092 72.9502 22.3672 72.3759 20.166C71.8017 17.9648 68.2536 11.1698 65.9638 7.91583Z" fill="#FFDD65" stroke="#383434" stroke-width="1.53127" stroke-linecap="round" stroke-linejoin="round"></path><path d="M10.8669 7.91583C13.4935 4.18335 15.1736 3.32202 18.8104 3.32202L17.0877 11.8397L14.4602 25.0457L10.197 45.5276C8.05323 42.4651 4.45475 41.508 1.39221 43.7092C1.39221 43.7092 3.88052 22.3672 4.45475 20.166C5.02897 17.9648 8.57712 11.1698 10.8669 7.91583Z" fill="#FFDD65" stroke="#383434" stroke-width="1.53127" stroke-linecap="round" stroke-linejoin="round"></path></svg>