<svg width="77" height="56" viewBox="0 0 77 56" fill="none" xmlns="http://www.w3.org/2000/svg"><path d="M21.4411 0.865243H55.4676C56.6971 0.865243 57.7563 1.73152 58.0002 2.93655L67.8038 51.3629C68.1278 52.9635 66.9042 54.4596 65.2711 54.4596H11.6376C10.0045 54.4596 8.7809 52.9635 9.10494 51.3629L18.9085 2.93655C19.1524 1.73152 20.2116 0.865243 21.4411 0.865243Z" fill="white" stroke="#383434" stroke-width="1.53127"></path><path d="M65.9638 7.76824C63.3372 4.03577 61.6571 3.17444 58.0203 3.17444L59.743 11.6921L62.3705 24.8981L66.6337 45.38C68.7775 42.3175 72.3759 41.3605 75.4385 43.5616C75.4385 43.5616 72.9502 22.2196 72.3759 20.0184C71.8017 17.8172 68.2536 11.0222 65.9638 7.76824Z" fill="#FFDD65" stroke="#383434" stroke-width="1.53127" stroke-linecap="round" stroke-linejoin="round"></path><path d="M10.8669 7.76824C13.4935 4.03577 15.1736 3.17444 18.8104 3.17444L17.0877 11.6921L14.4602 24.8981L10.197 45.38C8.05323 42.3175 4.45475 41.3605 1.39221 43.5616C1.39221 43.5616 3.88052 22.2196 4.45475 20.0184C5.02897 17.8172 8.57712 11.0222 10.8669 7.76824Z" fill="#FFDD65" stroke="#383434" stroke-width="1.53127" stroke-linecap="round" stroke-linejoin="round"></path><path fill-rule="evenodd" clip-rule="evenodd" d="M27.0886 12.722C27.0886 12.5476 27.23 12.4062 27.4043 12.4062H30.5615C30.7358 12.4062 30.8772 12.5476 30.8772 12.722V14.1743H33.4029V12.722C33.4029 12.5476 33.5442 12.4062 33.7186 12.4062H36.8758C37.0501 12.4062 37.1915 12.5476 37.1915 12.722V14.1743H39.7172V12.722C39.7172 12.5476 39.8585 12.4062 40.0329 12.4062H43.1901C43.3644 12.4062 43.5058 12.5476 43.5058 12.722V14.1743H46.0315V12.722C46.0315 12.5476 46.1728 12.4062 46.3472 12.4062H49.5043C49.6787 12.4062 49.8201 12.5476 49.8201 12.722V14.1743H51.6512C51.7907 14.1743 51.9038 14.2873 51.9038 14.4268V24.0246C51.9038 24.164 51.7907 24.2771 51.6512 24.2771H25.2575C25.118 24.2771 25.0049 24.164 25.0049 24.0246V14.4268C25.0049 14.2873 25.118 14.1743 25.2575 14.1743H27.0886V12.722Z" fill="#E22525"></path></svg>