<svg width="87" height="58" viewBox="0 0 87 58" fill="none" xmlns="http://www.w3.org/2000/svg"><path d="M85.6184 57.2478H1.59261C-1.86561 44.122 7.77542 -7.89467 28.5117 1.88856C33.666 3.63438 40.7453 10.1231 59.4376 1.8885C78.3091 -6.42497 91.2661 34.781 85.6184 57.2478Z" fill="#E22525"></path><path d="M27.4411 2.98322H61.4676C62.6971 2.98322 63.7563 3.8495 64.0002 5.05453L73.8038 53.4809C74.1278 55.0815 72.9042 56.5776 71.2711 56.5776H17.6376C16.0045 56.5776 14.7809 55.0815 15.1049 53.4809L24.9085 5.05453C25.1524 3.8495 26.2116 2.98322 27.4411 2.98322Z" fill="#2D89DF" stroke="#383434" stroke-width="1.53127"></path><path d="M71.9638 9.88622C69.3372 6.15375 67.6571 5.29242 64.0203 5.29242L65.743 13.8101L68.3705 27.0161L72.6337 47.498C74.7775 44.4355 78.3759 43.4784 81.4385 45.6796C81.4385 45.6796 78.9502 24.3376 78.3759 22.1364C77.8017 19.9352 74.2536 13.1402 71.9638 9.88622Z" fill="#2D89DF" stroke="#383434" stroke-width="1.53127" stroke-linecap="round" stroke-linejoin="round"></path><path d="M16.8669 9.88622C19.4935 6.15375 21.1736 5.29242 24.8104 5.29242L23.0877 13.8101L20.4602 27.0161L16.197 47.498C14.0532 44.4355 10.4547 43.4784 7.39221 45.6796C7.39221 45.6796 9.88052 24.3376 10.4547 22.1364C11.029 19.9352 14.5771 13.1402 16.8669 9.88622Z" fill="#2D89DF" stroke="#383434" stroke-width="1.53127" stroke-linecap="round" stroke-linejoin="round"></path><circle cx="44.4182" cy="20.662" r="8.77689" fill="#FFDD65"></circle><path fill-rule="evenodd" clip-rule="evenodd" d="M42.7049 9.26904C42.7049 9.20964 42.7531 9.1615 42.8124 9.1615H43.8878C43.9472 9.1615 43.9953 9.20964 43.9953 9.26903V9.7637H44.8556V9.26904C44.8556 9.20964 44.9038 9.1615 44.9632 9.1615H46.0385C46.0979 9.1615 46.1461 9.20964 46.1461 9.26903V9.7637H46.7268C46.7743 9.7637 46.8128 9.80222 46.8128 9.84973V13.1188C46.8128 13.1663 46.7743 13.2049 46.7268 13.2049H42.1457C42.0982 13.2049 42.0597 13.1663 42.0597 13.1188V9.84973C42.0597 9.80222 42.0982 9.7637 42.1457 9.7637H42.7049V9.26904Z" fill="#E22525"></path><path fill-rule="evenodd" clip-rule="evenodd" d="M40.3496 12.582C40.3496 12.5226 40.3977 12.4744 40.4571 12.4744H41.5325C41.5918 12.4744 41.64 12.5226 41.64 12.582V13.0766H42.5003V12.582C42.5003 12.5226 42.5484 12.4744 42.6078 12.4744H43.6832C43.7426 12.4744 43.7907 12.5226 43.7907 12.582V13.0766H44.3714C44.4189 13.0766 44.4574 13.1151 44.4574 13.1627V16.4317C44.4574 16.4793 44.4189 16.5178 44.3714 16.5178H39.7904C39.7429 16.5178 39.7043 16.4793 39.7043 16.4317V13.1627C39.7043 13.1151 39.7429 13.0766 39.7904 13.0766H40.3496V12.582Z" fill="#E22525"></path><path fill-rule="evenodd" clip-rule="evenodd" d="M40.3496 15.8574C40.3496 15.798 40.3977 15.7498 40.4571 15.7498H41.5325C41.5918 15.7498 41.64 15.798 41.64 15.8574V16.352H42.5003V15.8574C42.5003 15.798 42.5484 15.7498 42.6078 15.7498H43.6832C43.7426 15.7498 43.7907 15.798 43.7907 15.8574V16.352H44.3714C44.4189 16.352 44.4574 16.3905 44.4574 16.438V19.7071C44.4574 19.7547 44.4189 19.7932 44.3714 19.7932H39.7904C39.7429 19.7932 39.7043 19.7547 39.7043 19.7071V16.438C39.7043 16.3905 39.7429 16.352 39.7904 16.352H40.3496V15.8574Z" fill="#E22525"></path><path fill-rule="evenodd" clip-rule="evenodd" d="M42.7049 18.912C42.7049 18.8526 42.7531 18.8045 42.8124 18.8045H43.8878C43.9472 18.8045 43.9953 18.8526 43.9953 18.912V19.4067H44.8556V18.912C44.8556 18.8526 44.9038 18.8045 44.9632 18.8045H46.0385C46.0979 18.8045 46.1461 18.8526 46.1461 18.912V19.4067H46.7268C46.7743 19.4067 46.8128 19.4452 46.8128 19.4927V22.7618C46.8128 22.8093 46.7743 22.8479 46.7268 22.8479H42.1457C42.0982 22.8479 42.0597 22.8093 42.0597 22.7618V19.4927C42.0597 19.4452 42.0982 19.4067 42.1457 19.4067H42.7049V18.912Z" fill="#E22525"></path><path fill-rule="evenodd" clip-rule="evenodd" d="M45.0606 22.2586C45.0606 22.1992 45.1088 22.1511 45.1682 22.1511H46.2435C46.3029 22.1511 46.3511 22.1992 46.3511 22.2586V22.7533H47.2113V22.2586C47.2113 22.1992 47.2595 22.1511 47.3189 22.1511H48.3942C48.4536 22.1511 48.5018 22.1992 48.5018 22.2586V22.7533H49.0825C49.13 22.7533 49.1685 22.7918 49.1685 22.8393V26.1084C49.1685 26.1559 49.13 26.1944 49.0825 26.1944H44.5014C44.4539 26.1944 44.4154 26.1559 44.4154 26.1084V22.8393C44.4154 22.7918 44.4539 22.7533 44.5014 22.7533H45.0606V22.2586Z" fill="#E22525"></path><path fill-rule="evenodd" clip-rule="evenodd" d="M45.0606 25.3917C45.0606 25.3323 45.1088 25.2841 45.1682 25.2841H46.2435C46.3029 25.2841 46.3511 25.3323 46.3511 25.3917V25.8863H47.2113V25.3917C47.2113 25.3323 47.2595 25.2841 47.3189 25.2841H48.3942C48.4536 25.2841 48.5018 25.3323 48.5018 25.3917V25.8863H49.0825C49.13 25.8863 49.1685 25.9248 49.1685 25.9723V29.2414C49.1685 29.289 49.13 29.3275 49.0825 29.3275H44.5014C44.4539 29.3275 44.4154 29.289 44.4154 29.2414V25.9723C44.4154 25.9248 44.4539 25.8863 44.5014 25.8863H45.0606V25.3917Z" fill="#E22525"></path><path fill-rule="evenodd" clip-rule="evenodd" d="M40.3496 25.3917C40.3496 25.3323 40.3977 25.2841 40.4571 25.2841H41.5325C41.5918 25.2841 41.64 25.3323 41.64 25.3917V25.8863H42.5003V25.3917C42.5003 25.3323 42.5484 25.2841 42.6078 25.2841H43.6832C43.7426 25.2841 43.7907 25.3323 43.7907 25.3917V25.8863H44.3714C44.4189 25.8863 44.4574 25.9248 44.4574 25.9723V29.2414C44.4574 29.289 44.4189 29.3275 44.3714 29.3275H39.7904C39.7429 29.3275 39.7043 29.289 39.7043 29.2414V25.9723C39.7043 25.9248 39.7429 25.8863 39.7904 25.8863H40.3496V25.3917Z" fill="#E22525"></path><path fill-rule="evenodd" clip-rule="evenodd" d="M42.7049 28.2625C42.7049 28.2031 42.7531 28.155 42.8124 28.155H43.8878C43.9472 28.155 43.9953 28.2031 43.9953 28.2625V28.7572H44.8556V28.2625C44.8556 28.2031 44.9038 28.155 44.9632 28.155H46.0385C46.0979 28.155 46.1461 28.2031 46.1461 28.2625V28.7572H46.7268C46.7743 28.7572 46.8128 28.7957 46.8128 28.8432V32.1123C46.8128 32.1598 46.7743 32.1983 46.7268 32.1983H42.1457C42.0982 32.1983 42.0597 32.1598 42.0597 32.1123V28.8432C42.0597 28.7957 42.0982 28.7572 42.1457 28.7572H42.7049V28.2625Z" fill="#E22525"></path><path fill-rule="evenodd" clip-rule="evenodd" d="M45.0606 12.582C45.0606 12.5226 45.1088 12.4744 45.1682 12.4744H46.2435C46.3029 12.4744 46.3511 12.5226 46.3511 12.582V13.0766H47.2113V12.582C47.2113 12.5226 47.2595 12.4744 47.3189 12.4744H48.3942C48.4536 12.4744 48.5018 12.5226 48.5018 12.582V13.0766H49.0825C49.13 13.0766 49.1685 13.1151 49.1685 13.1627V16.4317C49.1685 16.4793 49.13 16.5178 49.0825 16.5178H44.5014C44.4539 16.5178 44.4154 16.4793 44.4154 16.4317V13.1627C44.4154 13.1151 44.4539 13.0766 44.5014 13.0766H45.0606V12.582Z" fill="#E22525"></path></svg>