<svg width="77" height="56" viewBox="0 0 77 56" fill="none" xmlns="http://www.w3.org/2000/svg"><path d="M21.4411 0.894785H55.4676C56.6971 0.894785 57.7563 1.76106 58.0002 2.96609L67.8038 51.3924C68.1278 52.9931 66.9042 54.4892 65.2711 54.4892H11.6376C10.0045 54.4892 8.7809 52.9931 9.10494 51.3924L18.9085 2.96609C19.1524 1.76106 20.2116 0.894785 21.4411 0.894785Z" fill="#D0AB74" stroke="#383434" stroke-width="1.53127"></path><path d="M26.6901 0.556519C27.4048 1.35464 33.5555 2.18217 38.4309 2.18214C43.3063 2.18211 49.4572 1.35461 50.1719 0.556519" stroke="#383434" stroke-width="1.28118"></path><path d="M22.8352 1.66016C22.8352 2.79897 28.8322 6.61103 38.735 6.61103C48.6377 6.61103 54.0888 2.59408 54.0888 1.66016" stroke="#86765E" stroke-width="1.28118"></path><path d="M65.9638 7.79766C63.3372 4.06519 61.6571 3.20386 58.0203 3.20386L59.743 11.7215L62.3705 24.9275L66.6337 45.4094C68.7775 42.3469 72.3759 41.3899 75.4385 43.5911C75.4385 43.5911 72.9502 22.249 72.3759 20.0478C71.8017 17.8466 68.2536 11.0516 65.9638 7.79766Z" fill="#D0AB74" stroke="#383434" stroke-width="1.53127" stroke-linecap="round" stroke-linejoin="round"></path><path d="M10.8669 7.79766C13.4935 4.06519 15.1736 3.20386 18.8104 3.20386L17.0877 11.7215L14.4602 24.9275L10.197 45.4094C8.05323 42.3469 4.45475 41.3899 1.39221 43.5911C1.39221 43.5911 3.88052 22.249 4.45475 20.0478C5.02897 17.8466 8.57712 11.0516 10.8669 7.79766Z" fill="#D0AB74" stroke="#383434" stroke-width="1.53127" stroke-linecap="round" stroke-linejoin="round"></path><path d="M26.3718 12.9684L20.7021 22.1604L26.3718 30.9031L31.8527 22.1604L26.3718 12.9684Z" fill="#67430E"></path><path d="M39.5344 12.9684L33.8647 22.1604L39.5344 30.9031L45.0153 22.1604L39.5344 12.9684Z" fill="#86765E"></path><path d="M52.589 12.9684L46.9193 22.1604L52.589 30.9031L58.0699 22.1604L52.589 12.9684Z" fill="#67430E"></path><path d="M18.0418 29.2215L32.0596 15.4603L47.4792 29.2215L58.1661 15.4603" stroke="#383434" stroke-width="0.512472" stroke-dasharray="0.51 0.51"></path><path d="M19.1583 15.4604L32.2691 29.2216L46.6226 15.0188L59.9034 28.6834" stroke="#383434" stroke-width="0.512472" stroke-dasharray="0.51 0.51"></path></svg>