<svg width="41" height="11" viewBox="0 0 41 11" fill="none" xmlns="http://www.w3.org/2000/svg"><path fill-rule="evenodd" clip-rule="evenodd" d="M8.44926 3.01646C8.61454 3.81696 8.90554 4.83635 9.28985 5.75103C9.52498 6.31068 9.7841 6.80461 10.0535 7.1782C10.3334 7.56631 10.5675 7.74512 10.7247 7.80288C12.1294 8.31905 13.9269 8.63025 16.6947 8.38603C16.9718 8.36158 17.261 8.20652 17.5606 7.84771C17.8639 7.48438 18.1326 6.96164 18.349 6.33687C18.7365 5.21791 18.9048 3.92398 18.8836 3.01063C17.5456 1.99708 15.4061 1.6914 13.2099 1.85525C12.0699 1.94029 10.9673 2.14854 10.044 2.41379C9.37934 2.60471 8.83788 2.81652 8.44926 3.01646ZM7.44468 1.81597C8.00772 1.48078 8.77261 1.17941 9.6195 0.936137C10.6428 0.642189 11.8492 0.415072 13.0955 0.322095C15.2957 0.157948 17.7988 0.400241 19.5864 1.62259C19.6429 1.59658 19.7061 1.57092 19.7766 1.54655C20.0557 1.45018 20.4432 1.37608 20.9748 1.37607C21.5064 1.37606 21.894 1.45016 22.173 1.54654C22.2153 1.56113 22.2549 1.57618 22.292 1.59149C24.0764 0.396133 26.5555 0.159349 28.737 0.322095C29.9832 0.415072 31.1896 0.64219 32.2129 0.936137C33.0559 1.17827 33.8175 1.47796 34.3798 1.81127L39.7329 0.591861C40.1468 0.497567 40.5588 0.756691 40.6531 1.17063C40.7474 1.58457 40.4883 1.99658 40.0743 2.09087L34.9006 3.26943C34.7178 4.17385 34.3937 5.3143 33.96 6.34655C33.699 6.96767 33.3874 7.57613 33.0259 8.07746C32.6749 8.56426 32.2178 9.03288 31.638 9.24596C29.9876 9.85238 27.958 10.1783 25.0026 9.91749C24.1939 9.84614 23.5604 9.39444 23.0916 8.83297C22.6267 8.27604 22.2818 7.56502 22.0307 6.83999C21.5823 5.54548 21.3823 4.05501 21.4127 2.94139C21.3016 2.92542 21.1575 2.91348 20.9748 2.91348C20.7199 2.91349 20.5401 2.93675 20.4202 2.96178C20.4477 4.07316 20.2474 5.55336 19.8018 6.83999C19.5507 7.56502 19.2057 8.27604 18.7408 8.83298C18.2721 9.39444 17.6385 9.84614 16.8299 9.91749C13.8744 10.1783 11.8448 9.85238 10.1945 9.24596C9.6146 9.03288 9.15758 8.56426 8.80652 8.07746C8.445 7.57613 8.13342 6.96767 7.87246 6.34656C7.44047 5.3184 7.11717 4.18291 6.93399 3.28022L1.6451 2.18421C1.22939 2.09806 0.962225 1.69122 1.04837 1.27551C1.13452 0.859798 1.54136 0.592632 1.95707 0.67878L7.44468 1.81597ZM33.3832 3.01646C33.2179 3.81696 32.9269 4.83635 32.5426 5.75103C32.3074 6.31068 32.0483 6.80461 31.7789 7.1782C31.499 7.56631 31.2649 7.74512 31.1077 7.80288C29.703 8.31905 27.9055 8.63025 25.1377 8.38603C24.8606 8.36158 24.5714 8.20652 24.2719 7.84772C23.9685 7.48438 23.6998 6.96164 23.4834 6.33687C23.0959 5.21791 22.9276 3.92398 22.9488 3.01063C24.2868 1.99708 26.4264 1.6914 28.6226 1.85525C29.7625 1.94029 30.8651 2.14854 31.7885 2.41379C32.4531 2.60471 32.9945 2.81652 33.3832 3.01646Z" fill="#383434"></path></svg>