<svg width="41" height="9" viewBox="0 0 41 9" fill="none" xmlns="http://www.w3.org/2000/svg"><path fill-rule="evenodd" clip-rule="evenodd" d="M14.8565 7.52059C17.278 7.28464 18.7396 5.54 18.5867 3.97104C18.4338 2.40208 16.6629 0.97242 14.2414 1.20837C11.8199 1.44432 10.3584 3.18896 10.5112 4.75792C10.6641 6.32688 12.435 7.75654 14.8565 7.52059ZM19.6234 4.19344C19.6354 6.36952 17.6187 8.28123 14.9559 8.5407C12.1625 8.81289 9.71587 7.16378 9.49113 4.85732C9.45605 4.49727 9.47718 4.14249 9.54847 3.79907C9.50558 3.76445 9.44811 3.72116 9.37958 3.6768C9.23123 3.58079 9.05281 3.49396 8.87133 3.46219L3.48308 4.91678C3.3822 4.94402 3.27458 4.929 3.185 4.8752C3.09543 4.82139 3.03162 4.73343 3.00827 4.63158L2.92374 4.26275C2.87647 4.05653 3.00475 3.85089 3.21074 3.80265L3.29696 4.17081L3.21081 3.80263L3.211 3.80259L3.2117 3.80243L3.21445 3.80178L3.22524 3.79926L3.26716 3.78949L3.4264 3.75253C3.5638 3.72073 3.76063 3.67539 3.9986 3.62118C4.47442 3.51277 5.11526 3.36875 5.77452 3.22647C6.43314 3.08433 7.11294 2.94333 7.66575 2.84132C7.94179 2.79039 8.18983 2.74848 8.38941 2.72105C8.57228 2.69591 8.7589 2.67592 8.88429 2.68851C9.25865 2.72608 9.58137 2.89175 9.79725 3.03147L9.79809 3.03201C10.469 1.53616 12.119 0.385384 14.142 0.18826C16.535 -0.0449127 18.6736 1.13191 19.3787 2.9241C19.4601 2.89919 19.5625 2.87056 19.6829 2.84223C19.9924 2.76944 20.4276 2.69709 20.9381 2.69713C21.4485 2.69716 21.8845 2.7695 22.1946 2.84216C22.3006 2.86702 22.3927 2.89209 22.4689 2.91467C23.1778 1.12778 25.3131 -0.0445034 27.7019 0.18826C29.7631 0.389104 31.4371 1.57993 32.0827 3.11706C32.1205 3.08957 32.1622 3.0607 32.2073 3.03147C32.4232 2.89175 32.7459 2.72608 33.1203 2.68851C33.2457 2.67592 33.4323 2.69591 33.6152 2.72105C33.8148 2.74848 34.0628 2.79039 34.3388 2.84132C34.8917 2.94333 35.5715 3.08433 36.2301 3.22647C36.8893 3.36875 37.5302 3.51277 38.006 3.62118C38.244 3.67539 38.4408 3.72073 38.5782 3.75253L38.7374 3.78949L38.7794 3.79926L38.7901 3.80178L38.7929 3.80243L38.7936 3.80259L38.7938 3.80263L38.7076 4.17081L38.7939 3.80265C38.9998 3.85089 39.1281 4.05653 39.0809 4.26275L38.9963 4.63158C38.973 4.73343 38.9092 4.82139 38.8196 4.8752C38.73 4.929 38.6224 4.94402 38.5215 4.91678L33.1333 3.46219C32.9518 3.49396 32.7734 3.58079 32.625 3.6768C32.5449 3.72864 32.4799 3.77902 32.4357 3.81582C32.4137 3.83411 32.3972 3.84874 32.3869 3.8581L32.3763 3.86789L32.3756 3.86852C32.3575 3.88629 32.338 3.90189 32.3176 3.91534C32.3707 4.22234 32.3839 4.53776 32.3528 4.85732C32.128 7.16378 29.6814 8.81289 26.888 8.5407C24.2198 8.28071 22.2003 6.36176 22.2206 4.18019C22.2081 4.17581 22.1915 4.17012 22.1708 4.16346C22.1114 4.14426 22.02 4.11713 21.9023 4.08955C21.6657 4.03411 21.3296 3.97834 20.938 3.97831C20.5466 3.97828 20.2115 4.03404 19.9763 4.08937C19.8592 4.11692 19.7683 4.144 19.7094 4.16313C19.68 4.17269 19.6587 4.18021 19.6463 4.18476L19.6345 4.18914L19.6353 4.18883C19.6313 4.19041 19.6273 4.19194 19.6234 4.19344ZM19.6353 4.18883C19.6355 4.18873 19.6358 4.18863 19.636 4.18853L19.6357 4.18863L19.6353 4.18883ZM26.9874 7.52059C24.5659 7.28464 23.1043 5.54 23.2572 3.97104C23.4101 2.40208 25.181 0.97242 27.6025 1.20837C30.024 1.44432 31.4855 3.18896 31.3326 4.75792C31.1798 6.32688 29.4089 7.75654 26.9874 7.52059Z" fill="#383434"></path></svg>