<svg width="41" height="10" viewBox="0 0 41 10" fill="none" xmlns="http://www.w3.org/2000/svg"><path opacity="0.7" d="M22.1988 2.70707C25.3073 -0.0637795 32.361 1.36039 34.2346 2.70707C33.954 4.50263 32.847 8.05708 31.3729 8.59874C29.8454 9.16004 27.9318 9.47858 25.0701 9.22608C22.8988 9.03449 22.0304 4.75513 22.1988 2.70707Z" fill="#383434"></path><path opacity="0.7" d="M19.6338 2.45085C16.5252 -0.320005 9.47152 1.10416 7.5979 2.45085C7.87849 4.24641 8.98556 7.80085 10.4597 8.34252C11.9872 8.90381 13.9007 9.22236 16.7624 8.96986C18.9337 8.77827 19.8021 4.4989 19.6338 2.45085Z" fill="#383434"></path><path fill-rule="evenodd" clip-rule="evenodd" d="M33.3832 2.83452C33.2179 3.63502 32.9269 4.6544 32.5426 5.56909C32.3075 6.12873 32.0484 6.62267 31.779 6.99626C31.4991 7.38437 31.2649 7.56318 31.1078 7.62094C29.7031 8.1371 27.9055 8.4483 25.1377 8.20408C24.8607 8.17964 24.5714 8.02458 24.2719 7.66577C23.9686 7.30243 23.6999 6.77969 23.4835 6.15492C23.096 5.03597 22.9277 3.74204 22.9489 2.82868C24.2869 1.81513 26.4264 1.50946 28.6226 1.6733C29.7626 1.75835 30.8651 1.9666 31.7885 2.23185C32.4531 2.42277 32.9946 2.63457 33.3832 2.83452ZM34.3894 1.63501C33.8263 1.29943 33.0607 0.997705 32.213 0.754192C31.1897 0.460244 29.9833 0.233126 28.737 0.14015C26.5556 -0.0225981 24.0764 0.214192 22.292 1.40958C22.2549 1.39427 22.2153 1.37922 22.1731 1.36463C21.894 1.26825 21.5065 1.19415 20.9748 1.19417C20.4433 1.19418 20.0557 1.26828 19.7767 1.36464C19.7061 1.38901 19.6429 1.41467 19.5865 1.44067C17.7989 0.218298 15.2958 -0.0239991 13.0955 0.14015C11.8493 0.233126 10.6428 0.460244 9.61954 0.754191C8.77618 0.996455 8.01413 1.29633 7.45177 1.62985L2.85484 0.593242C2.4407 0.499852 2.02926 0.759876 1.93587 1.17402C1.84248 1.58817 2.1025 1.99961 2.51665 2.093L6.93209 3.08868C7.11493 3.99291 7.43899 5.1328 7.8725 6.16461C8.13347 6.78573 8.44505 7.39419 8.80657 7.89551C9.15762 8.38232 9.61465 8.85094 10.1945 9.06401C11.8448 9.67044 13.8744 9.99632 16.8299 9.73555C17.6386 9.6642 18.2721 9.21249 18.7408 8.65103C19.2058 8.0941 19.5507 7.38307 19.8018 6.65805C20.2474 5.37143 20.4477 3.89125 20.4203 2.77987C20.5401 2.75484 20.72 2.73159 20.9749 2.73158C21.1576 2.73158 21.3017 2.74351 21.4128 2.75949C21.3824 3.87311 21.5824 5.36355 22.0307 6.65804C22.2818 7.38307 22.6268 8.0941 23.0917 8.65103C23.5604 9.21249 24.194 9.6642 25.0026 9.73555C27.9581 9.99632 29.9877 9.67044 31.638 9.06401C32.2179 8.85094 32.6749 8.38232 33.026 7.89551C33.3875 7.39419 33.6991 6.78573 33.96 6.16461C34.3916 5.13731 34.7148 4.00287 34.898 3.10055L39.8455 2.09647C40.2616 2.01203 40.5304 1.60629 40.446 1.19023C40.3615 0.774166 39.9558 0.505331 39.5397 0.58977L34.3894 1.63501ZM8.44931 2.83452C8.61458 3.63502 8.90558 4.6544 9.28989 5.56909C9.52503 6.12873 9.78415 6.62267 10.0536 6.99626C10.3334 7.38437 10.5676 7.56318 10.7248 7.62094C12.1295 8.1371 13.927 8.4483 16.6948 8.20408C16.9718 8.17964 17.2611 8.02457 17.5606 7.66577C17.8639 7.30243 18.1327 6.77969 18.3491 6.15492C18.7366 5.03596 18.9049 3.74203 18.8837 2.82868C17.5456 1.81513 15.4061 1.50946 13.2099 1.6733C12.07 1.75835 10.9674 1.9666 10.044 2.23185C9.37939 2.42277 8.83793 2.63457 8.44931 2.83452Z" fill="#383434"></path></svg>