<svg width="113" height="114" viewBox="0 0 113 114" fill="none" xmlns="http://www.w3.org/2000/svg"><g clip-path="url(#clip0_233_1353)"><rect y="0.274414" width="112.744" height="112.744" fill="#2DD29B"></rect><path d="M50.0271 4.64949L57.527 33.6939L85.9017 -4.65L71.2298 39.9364L98.4149 25.2168L81.2665 51.3422L98.4149 53.8823L85.9017 65.939L145.939 76.7612L84.3338 81.2028L108.194 94.4945H76.834L108.194 134.965L64.6991 103.516V153.989L50.0271 106.707L35.3553 123.697V103.516L11.7552 123.697L23.2203 94.4945L-19.8107 112.962L15.7205 81.2028L-15.4345 76.7612L14.1526 65.939L-34.5807 39.9364L18.7877 51.3422L6.99368 30.36L28.8245 39.9364L14.1526 -4.65002L42.5273 33.6939L50.0271 4.64949Z" fill="#000F33"></path><path d="M49.0479 28.3549L55.6793 2.67328L62.3109 28.3549L62.7812 30.1762L63.9001 28.6641L88.9604 -5.2008L76.0302 34.0929L75.3249 36.2362L77.3091 35.1618L101.364 22.1369L86.169 45.2868L85.3987 46.4604L86.7874 46.6661L102.131 48.939L90.9316 59.73L89.6683 60.9472L91.3948 61.2584L144.417 70.8161L89.9215 74.7451L86.9252 74.9611L89.5496 76.423L110.394 88.0344H82.4862H80.6567L81.7773 89.4806L109.316 125.019L70.8768 97.2258L69.4545 96.1974V97.9525V142.509L56.5359 100.878L56.0569 99.3342L55.0006 100.557L41.9043 115.723V97.9525V96.0056L40.4246 97.2709L19.5552 115.117L29.7073 89.259L30.492 87.2603L28.5188 88.1071L-9.46963 104.41L21.9704 76.3082L23.4074 75.0238L21.4993 74.7517L-6.12166 70.814L20.1129 61.2181L21.9969 60.5289L20.227 59.5846L-22.8833 36.5822L24.2525 46.6559L26.1951 47.0711L25.2217 45.3395L14.742 26.6955L34.1164 35.1945L35.9567 36.0018L35.3286 34.0929L22.3984 -5.20083L47.4586 28.6641L48.5776 30.1762L49.0479 28.3549Z" fill="#FFDE66" stroke="#292929" stroke-width="1.79365"></path></g><defs><clipPath id="clip0_233_1353"><rect width="112.744" height="112.744" fill="white" transform="translate(0 0.274414)"></rect></clipPath></defs></svg>