<svg width="113" height="113" viewBox="0 0 113 113" fill="none" xmlns="http://www.w3.org/2000/svg"><g clip-path="url(#clip0_233_348)"><rect width="112.744" height="112.744" fill="#8347FF"></rect><path d="M50.027 4.37508L57.5269 33.4194L85.9016 -4.92441L71.2298 39.662L98.4148 24.9424L81.2665 51.0677L98.4148 53.6079L85.9016 65.6646L145.939 76.4868L84.3337 80.9284L108.194 94.2201H76.8339L108.194 134.691L64.699 103.241V153.714L50.027 106.432L35.3552 123.423V103.241L11.7551 123.423L23.2202 94.2201L-19.8108 112.687L15.7204 80.9284L-15.4346 76.4868L14.1525 65.6646L-34.5808 39.662L18.7877 51.0677L6.99362 30.0855L28.8244 39.662L14.1525 -4.92444L42.5272 33.4194L50.027 4.37508Z" fill="#000F33"></path><path d="M49.0479 28.0804L55.6794 2.39887L62.3109 28.0804L62.7812 29.9018L63.9002 28.3897L88.9604 -5.47521L76.0302 33.8184L75.3249 35.9618L77.3091 34.8874L101.364 21.8625L86.1691 45.0124L85.3988 46.1859L86.7874 46.3916L102.131 48.6646L90.9317 59.4556L89.6684 60.6728L91.3949 60.984L144.417 70.5416L89.9216 74.4707L86.9252 74.6867L89.5496 76.1486L110.394 87.76H82.4863H80.6568L81.7774 89.2062L109.316 124.745L70.8768 96.9514L69.4545 95.923V97.6781V142.235L56.5359 100.603L56.0569 99.0598L55.0006 100.283L41.9044 115.449V97.6781V95.7312L40.4247 96.9965L19.5553 114.843L29.7074 88.9846L30.4921 86.9859L28.5189 87.8327L-9.46957 104.136L21.9704 76.0338L23.4075 74.7494L21.4994 74.4773L-6.1216 70.5395L20.113 60.9436L21.997 60.2545L20.2271 59.3102L-22.8833 36.3078L24.2526 46.3815L26.1951 46.7967L25.2218 45.0651L14.7421 26.4211L34.1165 34.9201L35.9568 35.7273L35.3286 33.8184L22.3984 -5.47524L47.4587 28.3897L48.5776 29.9018L49.0479 28.0804Z" fill="#FFDE66" stroke="#E22525" stroke-width="1.79365"></path></g><defs><clipPath id="clip0_233_348"><rect width="112.744" height="112.744" fill="white"></rect></clipPath></defs></svg>