<svg width="113" height="113" viewBox="0 0 113 113" fill="none" xmlns="http://www.w3.org/2000/svg"><g clip-path="url(#clip0_233_1348)"><rect width="112.744" height="112.744" fill="#00AAFF"></rect><path d="M50.0271 4.37508L57.527 33.4194L85.9017 -4.92441L71.2298 39.662L98.4149 24.9424L81.2665 51.0677L98.4149 53.6079L85.9017 65.6646L145.939 76.4868L84.3338 80.9284L108.194 94.2201H76.834L108.194 134.691L64.6991 103.241V153.714L50.0271 106.432L35.3553 123.423V103.241L11.7552 123.423L23.2203 94.2201L-19.8107 112.687L15.7205 80.9284L-15.4345 76.4868L14.1526 65.6646L-34.5807 39.662L18.7877 51.0677L6.99368 30.0855L28.8245 39.662L14.1526 -4.92444L42.5273 33.4194L50.0271 4.37508Z" fill="#000F33"></path><path d="M49.0479 28.0804L55.6793 2.39886L62.3109 28.0804L62.7812 29.9018L63.9001 28.3897L88.9604 -5.47522L76.0302 33.8184L75.3249 35.9618L77.3091 34.8874L101.364 21.8625L86.169 45.0124L85.3987 46.186L86.7874 46.3917L102.131 48.6645L90.9316 59.4556L89.6683 60.6728L91.3948 60.984L144.417 70.5416L89.9215 74.4707L86.9252 74.6867L89.5496 76.1486L110.394 87.76H82.4862H80.6567L81.7773 89.2062L109.316 124.745L70.8768 96.9514L69.4545 95.923V97.6781V142.235L56.5359 100.603L56.0569 99.0598L55.0006 100.283L41.9043 115.449V97.6781V95.7312L40.4246 96.9965L19.5552 114.843L29.7073 88.9846L30.492 86.9859L28.5188 87.8327L-9.46963 104.136L21.9704 76.0338L23.4074 74.7494L21.4993 74.4773L-6.12166 70.5395L20.1129 60.9437L21.9969 60.2545L20.227 59.3102L-22.8833 36.3078L24.2525 46.3815L26.1951 46.7967L25.2217 45.0651L14.742 26.4211L34.1164 34.9201L35.9567 35.7273L35.3286 33.8184L22.3984 -5.47524L47.4586 28.3897L48.5776 29.9018L49.0479 28.0804Z" fill="#FFDE66" stroke="#292929" stroke-width="1.79365"></path></g><defs><clipPath id="clip0_233_1348"><rect width="112.744" height="112.744" fill="white"></rect></clipPath></defs></svg>