<svg width="113" height="114" viewBox="0 0 113 114" fill="none" xmlns="http://www.w3.org/2000/svg"><rect width="56.3719" height="56.3719" transform="translate(0 0.274414)" fill="#FFC800"></rect><circle opacity="0.2" cx="14.7335" cy="15.008" r="8.32766" fill="white"></circle><circle opacity="0.2" cx="41.6383" cy="15.008" r="8.32766" fill="white"></circle><circle opacity="0.2" cx="14.7335" cy="41.9127" r="8.32766" fill="white"></circle><circle opacity="0.2" cx="41.6383" cy="41.9127" r="8.32766" fill="white"></circle><rect width="56.3719" height="56.3719" transform="translate(56.3719 0.274414)" fill="#FFC800"></rect><circle opacity="0.2" cx="71.1054" cy="15.008" r="8.32766" fill="white"></circle><circle opacity="0.2" cx="98.0102" cy="15.008" r="8.32766" fill="white"></circle><circle opacity="0.2" cx="71.1054" cy="41.9127" r="8.32766" fill="white"></circle><circle opacity="0.2" cx="98.0102" cy="41.9127" r="8.32766" fill="white"></circle><rect width="56.3719" height="56.3719" transform="translate(0 56.6462)" fill="#FFC800"></rect><circle opacity="0.2" cx="14.7335" cy="71.3798" r="8.32766" fill="white"></circle><circle opacity="0.2" cx="41.6383" cy="71.3798" r="8.32766" fill="white"></circle><circle opacity="0.2" cx="14.7335" cy="98.2846" r="8.32766" fill="white"></circle><circle opacity="0.2" cx="41.6383" cy="98.2846" r="8.32766" fill="white"></circle><rect width="56.3719" height="56.3719" transform="translate(56.3719 56.6462)" fill="#FFC800"></rect><circle opacity="0.2" cx="71.1054" cy="71.3798" r="8.32766" fill="white"></circle><circle opacity="0.2" cx="98.0102" cy="71.3798" r="8.32766" fill="white"></circle><circle opacity="0.2" cx="71.1054" cy="98.2846" r="8.32766" fill="white"></circle><circle opacity="0.2" cx="98.0102" cy="98.2846" r="8.32766" fill="white"></circle></svg>