<svg width="66" height="60" viewBox="0 0 66 60" fill="none" xmlns="http://www.w3.org/2000/svg"><path d="M14.0371 38.4379C12.5504 39.46 11.6638 37.3685 11.3928 36.3232C11.2288 35.905 10.1611 29.9152 10.3269 27.5879C11.292 24.0074 12.5463 23.4077 13.0341 22.2926C13.3347 21.6053 13.3678 19.696 15.091 17.9355C14.1589 16.1516 12.6433 12.3515 14.0371 11.4224C15.0251 10.7637 15.4878 10.8443 15.6735 11.085C15.2496 9.6775 14.9306 7.81653 16.4761 6.87208C18.1487 5.84995 19.9606 6.44619 20.6576 6.87208C20.735 5.28468 21.3545 2.15632 23.2129 2.34217C25.0713 2.52801 27.3169 3.42621 28.2074 3.85207C28.4785 2.92286 29.6943 1.08766 32.389 1.18058C35.0836 1.27351 37.9255 3.0003 39.0096 3.85207C39.629 3.31004 41.1235 2.38858 42.1457 3.03902C43.4233 3.85207 44.0042 6.87208 45.0495 6.87208C46.0948 6.87208 48.4178 8.26585 48.4178 9.42737V13.6293C48.9212 14.1326 49.9279 15.3251 49.9279 16.0684C49.9279 16.8118 49.4511 17.9508 49.2127 18.4274C50.5886 20.1063 51.2699 20.5208 51.554 20.9673C52.1014 21.8274 53.0392 23.4772 53.4124 25.1724C53.4157 25.1853 53.4187 25.1985 53.4216 25.2119C53.6267 26.0505 54.6551 27.7733 54.7868 28.5322C55.3675 31.8801 54.9447 33.4194 54.1317 36.3232C53.4812 38.6461 51.1786 38.535 50.4817 37.9156C50.4817 35.0118 46.773 31.2006 44.6071 31.2006C42.6294 31.2006 38.6054 30.2158 36.0848 29.1909C35.159 28.8144 33.6787 30.3392 32.389 30.6283C31.358 30.8595 29.7715 30.1544 28.608 29.9205C27.5057 29.699 26.1765 31.0756 24.4907 30.6283C18.7992 29.1184 16.5799 31.5501 15.7793 32.8921C15.091 34.0458 15.8954 37.1602 14.0371 38.4379Z" fill="#C2934C"></path><path d="M15.7793 32.8921C15.091 34.0458 15.8954 37.1602 14.0371 38.4378C12.5504 39.46 11.6638 37.3685 11.3928 36.3232C11.2288 35.905 10.1611 29.9152 10.3269 27.5879C11.292 24.0074 12.5463 23.4077 13.0341 22.2926M15.7793 32.8921C16.5799 31.5501 18.7992 29.1184 24.4907 30.6283C26.1765 31.0756 27.5057 29.699 28.608 29.9205M15.7793 32.8921C15.2302 32.9752 13.8445 32.0495 13.4054 30.6283M36.0848 29.1909C38.6054 30.2158 42.6294 31.2006 44.6071 31.2006M36.0848 29.1909C37.2561 28.3039 36.8937 26.5576 35.2889 22.8894M36.0848 29.1909C35.159 28.8144 33.6787 30.3392 32.389 30.6283C31.358 30.8595 29.7715 30.1544 28.608 29.9205M44.6071 31.2006C46.773 31.2006 50.4817 35.0118 50.4817 37.9156C51.1786 38.535 53.4812 38.6461 54.1317 36.3232C54.9447 33.4194 55.3675 31.8801 54.7868 28.5322C54.653 27.7612 53.5936 25.9952 53.4124 25.1724M44.6071 31.2006C44.9101 30.849 46.3829 29.1909 45.5057 26.8269M13.0341 22.2926C13.3347 21.6053 13.3678 19.696 15.091 17.9355M13.0341 22.2926C12.8406 24.4572 13.1398 27.6752 15.091 28.5322M15.091 17.9355C14.1589 16.1516 12.6433 12.3515 14.0371 11.4224C15.4308 10.4932 15.7793 11.0352 15.7793 11.4224M15.091 17.9355C15.909 17.0997 16.9138 16.8902 18.1344 16.0684M15.7793 11.4224C15.3146 9.98984 14.8035 7.89422 16.4761 6.87208C18.1487 5.84995 19.9606 6.44619 20.6576 6.87208M15.7793 11.4224C15.4909 12.5308 15.5573 15.5401 18.1344 16.0684M20.6576 6.87208C20.735 5.28468 21.3545 2.15632 23.2129 2.34217C25.0713 2.52801 27.3169 3.42621 28.2074 3.85207M20.6576 6.87208C19.9084 8.00584 20.5392 11.3112 23.7818 13.6293M28.2074 3.85207C28.4785 2.92286 29.6943 1.08766 32.389 1.18058C35.0836 1.27351 37.9255 3.0003 39.0096 3.85207M28.2074 3.85207C27.6897 5.10064 25.8505 8.33544 28.608 11.867C28.2277 12.6503 27.6953 14.5216 28.608 15.7406M39.0096 3.85207C39.629 3.31004 41.1235 2.38858 42.1457 3.03902C43.4233 3.85207 44.0042 6.87208 45.0495 6.87208M39.0096 3.85207C39.7831 5.32672 40.0257 9.99672 36.4492 12.7549M45.0495 6.87208C46.0948 6.87208 48.4178 8.26585 48.4178 9.42737C48.4178 10.3566 48.4178 12.2742 48.4178 13.6293C48.9212 14.1326 49.9279 15.3251 49.9279 16.0684C49.9279 16.8118 49.4511 17.9508 49.2127 18.4274M45.0495 6.87208C45.112 8.8189 44.6143 12.8042 42.1233 13.1709M49.2127 18.4274C50.5886 20.1063 51.2699 20.5208 51.554 20.9673C52.1014 21.8274 53.0392 23.4772 53.4124 25.1724M49.2127 18.4274C47.9021 16.8282 46.3432 16.3743 43.5152 14.9917M49.2127 18.4274C49.3885 19.5169 49.8806 22.412 48.4178 22.8894M21.3569 15.4179C20.2726 16.9638 18.4208 19.0497 21.3569 22.8894M21.3569 15.4179C21.7135 15.259 23.4006 13.7756 23.7818 13.6293M21.3569 15.4179C20.1473 15.9569 19.0764 15.4342 18.1344 16.0684M43.5152 14.9917C44.4689 17.2008 46.7757 19.2365 42.1233 23.9892M43.5152 14.9917C43.1903 14.8329 42.472 13.3173 42.1233 13.1709M53.4124 25.1724C53.6568 26.1461 52.8633 28.3955 49.9279 29.6034M28.608 29.9205C27.9443 28.7956 24.4907 23.7936 31.2973 19.5251M23.7818 13.6293C26.446 12.6063 28.4008 11.4548 32.389 11.4224C34.0069 11.4092 35.0833 12.5494 36.4492 12.7549M36.4492 12.7549C38.4536 13.0565 40.6079 12.5347 42.1233 13.1709" stroke="#383434" stroke-width="1.28118" stroke-linecap="round" stroke-linejoin="round"></path></svg>