<svg width="66" height="59" viewBox="0 0 66 59" fill="none" xmlns="http://www.w3.org/2000/svg"><path d="M13.4078 36.0515C11.8799 35.3412 14.3559 36.4775 11.051 34.7063C10.7919 28.1538 14.4016 12.5264 30.9274 11.9933C51.5846 11.3269 54.3608 29.6449 54.2497 34.7063C54.2497 34.7063 52.901 36.2821 51.5576 36.7471C50.2142 37.2121 49.9573 37.1521 47.7576 36.1241C45.558 35.0962 41.801 33.3514 33.0843 33.3514C23.5305 33.3514 21.0963 35.2546 17.8347 36.4142C16.4375 36.9109 15.6808 37.1083 13.4078 36.0515Z" fill="#1776CF"></path><path d="M11.051 34.7063C14.3559 36.4775 11.8799 35.3412 13.4078 36.0515C15.6808 37.1083 16.4375 36.9109 17.8347 36.4142C21.0963 35.2546 23.5305 33.3514 33.0843 33.3514C41.801 33.3514 45.558 35.0962 47.7576 36.1241C49.9573 37.1521 50.2142 37.2121 51.5576 36.7471C52.901 36.2821 54.2497 34.7063 54.2497 34.7063M11.051 34.7063C10.7919 28.1538 14.4016 12.5264 30.9274 11.9933C51.5846 11.3269 54.3608 29.6449 54.2497 34.7063M11.051 34.7063C14.865 32.7301 21.7062 29.4681 33.0843 29.4681C45.3831 29.4681 53.2063 34.13 54.2497 34.7063" stroke="#033561" stroke-width="1.52497"></path></svg>