<svg width="66" height="58" viewBox="0 0 66 58" fill="none" xmlns="http://www.w3.org/2000/svg"><g clip-path="url(#clip0_233_56)"><path d="M13.0361 39.0816V45.5852C11.6246 43.6468 8.69499 39.5511 8.26823 38.6755C7.84146 37.7998 8.09041 36.3031 8.26823 35.6642C7.79406 35.4575 6.68569 34.4242 6.04555 31.9444C5.4054 29.4645 6.66789 27.2322 7.37916 26.4261C7.16577 24.3546 8.59427 22.6878 9.33519 22.1134C9.33519 18.1924 12.2395 16.7598 13.6917 16.5336L14.0158 13.966L14.0525 13.8521C14.4899 12.4937 15.2262 10.2069 15.712 9.00541C16.1456 7.93321 17.2371 8.69166 17.8266 9.00541C17.6784 8.65114 17.8882 7.80091 19.0263 7.23415C20.1643 6.66738 21.9899 6.99799 22.7605 7.23415C22.879 6.61415 23.2939 5.21473 24.0052 4.57705C24.7165 3.93936 27.443 4.31135 28.7174 4.57705C28.8063 3.69137 30.3177 2.18584 31.8349 2.18584C33.0486 2.18584 33.8779 3.77998 34.1408 4.57705L36.4962 4.74977C37.5171 4.74977 38.3026 4.08327 38.7237 3.70198C39.4043 3.08563 40.0364 2.18584 41.2875 1.59015C44.4882 0.527344 44.8395 5.10854 44.8099 7.23415C47.3705 5.67536 49.1961 9.53691 49.7888 11.6625C51.9937 11.5917 54.5603 16.4156 55.5679 18.8365C59.4811 20.7849 58.8575 24.3168 60.0133 29.0154C61.1692 33.714 56.3246 37.2689 56.5757 39.77C56.7765 41.7708 54.0147 46.3061 52.6087 48.3236L53.1109 39.77C52.8096 39.7533 52.0965 39.73 51.6547 39.77C51.1023 39.82 50.4997 36.2685 49.2444 36.2685C47.989 36.2685 48.2401 31.5165 48.1397 29.0154C48.0392 26.5143 43.9719 26.8645 42.6161 27.0146C41.2603 27.1646 38.1281 25.0181 37.583 24.7219C37.0379 24.4258 35.7496 25.0675 34.8576 25.0181C34.1441 24.9786 32.5452 24.5341 31.8349 24.3168C31.5091 24.6097 30.5751 25.2308 29.4459 25.3715C28.3166 25.5121 26.6227 24.7269 25.9169 24.3168C24.5641 24.9613 21.3998 26.2855 19.5647 26.4261C17.7296 26.5667 17.0356 27.6565 16.918 28.1838C16.0357 36.2692 14.4477 35.3904 14.4477 36.445C14.4477 37.2887 13.5066 38.5543 13.0361 39.0816Z" fill="#744C10"></path><path d="M14.4477 36.445C14.4477 37.2887 13.5066 38.5543 13.0361 39.0816V45.5852C11.6246 43.6468 8.69499 39.5511 8.26823 38.6755C7.84146 37.7998 8.09041 36.3031 8.26823 35.6642C7.79406 35.4575 6.68569 34.4242 6.04555 31.9444C5.4054 29.4645 6.66789 27.2322 7.37916 26.4261C7.16577 24.3546 8.59427 22.6878 9.33519 22.1134M14.4477 36.445C14.4477 35.3904 16.0357 36.2692 16.918 28.1838C17.0356 27.6565 17.7296 26.5667 19.5647 26.4261C21.3998 26.2855 24.5641 24.9613 25.9169 24.3168M14.4477 36.445C13.2739 35.545 10.9446 32.9584 11.018 29.8119M25.9169 24.3168C26.6227 24.7269 28.3166 25.5121 29.4459 25.3715C30.5751 25.2308 31.5091 24.6097 31.8349 24.3168M25.9169 24.3168C27.378 23.0154 30.3004 19.7681 30.3004 17.1894M31.8349 24.3168C32.5452 24.5341 34.1441 24.9786 34.8576 25.0181C35.7496 25.0675 37.0379 24.4258 37.583 24.7219M31.8349 24.3168C33.3707 23.374 36.6705 21.0859 37.583 19.4761M37.583 24.7219C38.1281 25.0181 41.2603 27.1646 42.6161 27.0146M37.583 24.7219C39.5947 23.9795 43.8564 21.964 44.8099 19.842M42.6161 27.0146C43.9719 26.8645 48.0392 26.5143 48.1397 29.0154C48.2401 31.5165 47.989 36.2685 49.2444 36.2685M42.6161 27.0146C44.2575 26.4521 47.7651 24.8887 48.6645 23.1348M49.2444 36.2685C50.4997 36.2685 51.1023 39.82 51.6547 39.77C52.0965 39.73 52.8096 39.7533 53.1109 39.77M49.2444 36.2685C50.8682 35.6642 51.2529 32.2853 51.6547 29.8119M53.1109 39.77L52.6087 48.3236C54.0147 46.3061 56.7765 41.7708 56.5757 39.77C56.3246 37.2689 61.1692 33.714 60.0133 29.0154C58.8575 24.3168 59.4811 20.7849 55.5679 18.8365M53.1109 39.77C53.9299 38.8593 55.5679 36.361 55.5679 33.6536M55.5679 18.8365C54.5603 16.4156 51.9937 11.5917 49.7888 11.6625M55.5679 18.8365C55.5669 19.6124 55.1697 21.3509 54.8165 22.1134M49.7888 11.6625C49.1961 9.53691 47.3705 5.67536 44.8099 7.23415M49.7888 11.6625C49.7329 12.2058 49.5457 13.4271 49.2444 13.966M44.8099 7.23415C44.8395 5.10854 44.4882 0.527344 41.2875 1.59015C40.0364 2.18584 39.4043 3.08563 38.7237 3.70198C38.3026 4.08327 37.5171 4.74977 36.4962 4.74977L34.1408 4.57705M44.8099 7.23415C44.8869 7.83705 44.8789 9.21398 44.2313 9.89845M34.1408 4.57705C33.8779 3.77998 33.0486 2.18584 31.8349 2.18584C30.3177 2.18584 28.8063 3.69137 28.7174 4.57705M34.1408 4.57705C34.3797 5.09003 34.8576 6.33963 34.8576 7.23415M28.7174 4.57705C27.443 4.31135 24.7165 3.93936 24.0052 4.57705C23.2939 5.21473 22.879 6.61415 22.7605 7.23415M28.7174 4.57705C28.1937 5.32008 27.25 7.11536 27.6639 8.35229M22.7605 7.23415C21.9899 6.99799 20.1643 6.66738 19.0263 7.23415C17.8882 7.80091 17.6784 8.65114 17.8266 9.00541M22.7605 7.23415C22.4324 7.70503 21.8748 8.89712 22.2684 9.89845M17.8266 9.00541C17.2371 8.69166 16.1456 7.93321 15.712 9.00541C15.2124 10.2412 14.4477 12.6251 14.0158 13.966L13.6917 16.5336M17.8266 9.00541C17.6991 9.54296 18.0985 10.6504 18.4046 11.2029M13.6917 16.5336C12.2395 16.7598 9.33519 18.1924 9.33519 22.1134M13.6917 16.5336C13.0026 17.4878 12.5624 21.8979 13.6917 23.1348M9.33519 22.1134C9.43296 22.6141 10.3799 24.8104 11.018 25.3715" stroke="#422B09" stroke-width="1.79365" stroke-linecap="round" stroke-linejoin="round"></path></g><defs><clipPath id="clip0_233_56"><rect width="65.8526" height="57.653" fill="white" transform="translate(0.104492 0.151367)"></rect></clipPath></defs></svg>