<svg width="66" height="59" viewBox="0 0 66 59" fill="none" xmlns="http://www.w3.org/2000/svg"><path d="M7.00648 39.6864C6.24319 43.8069 8.56965 46.7409 13.4189 46.7409C13.7372 44.0056 13.0446 42.6411 14.5388 41.312C17.1977 38.9467 13.9528 38.1924 15.3295 35.6237C17.6886 33.8079 17.2575 31.7708 17.1977 30.2213C21.4881 30.2213 21.7486 26.6834 21.5694 26.0757C23.2898 27.0236 27.7572 27.4526 29.2401 25.2578C30.0898 27.4011 34.3923 27.2979 35.5846 25.7506C37.8068 26.6985 39.6999 26.6853 41.3732 25.2578C41.8607 27.2463 45.7892 29.698 47.9169 28.5139C47.2317 31.6715 48.1954 33.8451 50.1984 35.2181C51.9424 37.4768 49.0596 39.1418 51.1516 41.312C52.1893 42.3884 52.5815 43.7508 52.5815 46.1039C58.7467 45.0844 58.5557 39.5051 57.8687 37.7126C59.4467 35.2181 61.3701 33.4732 60.2334 29.1953C59.5871 26.763 58.3015 24.5004 54.832 23.7249C56.2415 21.8475 56.709 18.9647 54.832 16.2377C52.8321 13.3322 48.4223 14.1686 47.6457 15.0497C48.3028 14.0167 48.7096 9.97123 44.5077 8.43822C39.8008 6.72099 38.2318 9.60905 37.1617 10.9482C30.8576 1.41318 20.4532 6.95513 18.613 11.9508C12.6944 10.9482 9.52501 15.0497 10.0108 19.8854C3.78549 22.176 4.51079 28.117 6.24319 30.8209C2.96129 33.7067 3.95346 38.7948 7.00648 39.6864Z" fill="#583F3F"></path><path d="M7.00648 39.6864C6.24319 43.8069 8.56965 46.7409 13.4189 46.7409C13.7372 44.0056 13.0446 42.6411 14.5388 41.312C17.1977 38.9467 13.9528 38.1924 15.3295 35.6237C17.6886 33.8079 17.2575 31.7708 17.1977 30.2213C21.4881 30.2213 21.7486 26.6834 21.5694 26.0757M7.00648 39.6864C3.95346 38.7948 2.96129 33.7067 6.24319 30.8209M7.00648 39.6864C7.83426 39.3628 8.96458 39.1146 10.0108 39.6864M6.24319 30.8209C4.51079 28.117 3.78549 22.176 10.0108 19.8854M6.24319 30.8209C6.71635 30.2887 8.76177 30.8209 10.0108 32.036M10.0108 19.8854C9.52501 15.0497 12.6944 10.9482 18.613 11.9508M10.0108 19.8854C11.0561 19.5007 13.3261 20.61 14.0431 22.6757M18.613 11.9508C20.4532 6.95513 30.8576 1.41318 37.1617 10.9482M18.613 11.9508C18.5084 13.1356 19.1607 15.5054 21.5694 15.5054M37.1617 10.9482C38.2318 9.60905 39.8008 6.72099 44.5077 8.43822C48.7096 9.97123 48.3028 14.0167 47.6457 15.0497M37.1617 10.9482C37.1617 11.483 37.7373 14.1057 35.2759 15.0497M47.6457 15.0497C48.4223 14.1686 52.8321 13.3322 54.832 16.2377C56.709 18.9647 56.2415 21.8475 54.832 23.7249M47.6457 15.0497C47.038 15.7391 46.2551 16.1208 45.7093 18.2411M54.832 23.7249C58.3015 24.5004 59.5871 26.763 60.2334 29.1953C61.3701 33.4732 59.4467 35.2181 57.8687 37.7126M54.832 23.7249C54.832 23.7249 52.5815 24.6662 52.5815 26.0757M57.8687 37.7126C58.5557 39.5051 58.7467 45.0844 52.5815 46.1039C52.5815 43.7508 52.1893 42.3884 51.1516 41.312C49.0596 39.1418 51.9424 37.4768 50.1984 35.2181C48.1954 33.8451 47.2317 31.6715 47.9168 28.5139C45.7892 29.698 41.8607 27.2463 41.3732 25.2578M57.8687 37.7126C57.6526 37.1486 56.5402 36.5975 55.1786 37.7126M41.3732 25.2578C39.6999 26.6853 37.8068 26.6985 35.5846 25.7506C34.3923 27.2979 30.0898 27.4011 29.2401 25.2578C27.7572 27.4526 23.2898 27.0236 21.5694 26.0757M41.3732 25.2578C41.4874 25.1604 41.6495 24.9201 41.7375 24.6662M21.5694 26.0757C21.2662 25.9211 20.6187 25.4226 20.4532 24.6662" stroke="#383434" stroke-width="1.79365" stroke-linecap="round" stroke-linejoin="round"></path></svg>