<svg width="66" height="89" viewBox="0 0 66 89" fill="none" xmlns="http://www.w3.org/2000/svg"><path d="M26.4591 27.0765C29.483 28.7627 35.1471 29.8265 39.8321 25.1449C39.8321 25.1449 45.1129 25.3257 45.7862 28.2782C45.7862 31.4894 48.5743 32.6215 49.8148 35.4408C51.0553 38.2601 48.3066 38.5655 49.8148 42.5787C50.879 45.4107 48.3066 48.6993 48.3066 48.6993C48.3066 48.6993 43.1321 54.2703 43.5214 58.9236C43.9107 63.5769 48.5606 64.2992 45.7862 69.5793C43.0117 74.8594 47.6287 77.5086 42.2577 83.7373C43.0748 86.194 47.5467 84.5996 49.8148 83.7373C53.7547 82.2394 58.5605 75.5818 57.3974 69.5793C56.2342 63.5769 62.2374 60.5672 59.4912 52.6378C57.6344 47.2766 60.1174 43.6805 57.3974 39.5621C55.5735 36.8005 55.969 31.5541 53.7332 25.1449C51.9446 20.0175 45.7862 12.023 40.561 14.3842C38.684 10.6699 31.7892 10.67 29.2354 10.67H29.2108C26.6769 10.67 19.1921 10.67 17.4035 15.7702C16.3407 18.8008 15.038 16.786 12.2059 20.6614C9.3738 24.5367 9.84649 27.6126 9.25029 31.9351C8.88416 34.5895 4.04578 39.8099 4.04578 43.6805C4.04578 47.5511 5.70889 48.6972 5.29858 52.6378C4.98632 55.6366 4.046 57.2889 4.0459 60.9065C4.04579 64.524 6.30125 67.299 7.96083 69.5793C9.57182 71.7929 9.52106 73.7332 10.5471 76.4694C13.2301 83.6239 24.3724 87.9658 26.4591 87.2205C28.5459 86.4753 20.2441 80.5036 20.2441 74.1224C20.2441 71.9217 22.995 68.2254 22.995 63.7538C22.995 59.1005 18.8411 54.5451 17.4035 52.6378C14.3641 48.6052 16.3142 46.9856 17.4035 43.6805C18.4928 40.3754 14.6917 37.8587 16.3142 35.4408C17.471 33.7169 18.3878 33.0714 18.3878 30.074C18.3878 27.0765 22.995 25.1449 26.4591 27.0765Z" fill="#F0B84B"></path><path d="M39.8321 25.1449C35.1471 29.8265 29.483 28.7627 26.4591 27.0765C22.995 25.1449 18.3878 27.0765 18.3878 30.074C18.3878 33.0714 17.471 33.7169 16.3142 35.4408C14.6917 37.8587 18.4928 40.3754 17.4035 43.6805C16.3142 46.9856 14.3641 48.6052 17.4035 52.6378C18.8411 54.5451 22.995 59.1005 22.995 63.7538C22.995 68.2254 20.2441 71.9217 20.2441 74.1224C20.2441 80.5036 28.5459 86.4753 26.4591 87.2205C24.3724 87.9658 13.2301 83.6239 10.5471 76.4694C9.52106 73.7332 9.57182 71.7929 7.96083 69.5793C6.30125 67.299 4.04579 64.524 4.0459 60.9065C4.046 57.2889 4.98632 55.6366 5.29858 52.6378C5.70889 48.6972 4.04578 47.5511 4.04578 43.6805C4.04578 39.8099 8.88416 34.5895 9.25028 31.9351C9.84649 27.6126 9.3738 24.5367 12.2059 20.6614C15.038 16.786 16.3407 18.8008 17.4035 15.7702C19.1921 10.67 26.6769 10.67 29.2108 10.67C31.7446 10.67 38.6779 10.6579 40.561 14.3842M39.8321 25.1449C39.8321 25.1449 45.1129 25.3257 45.7862 28.2782C45.7862 31.4894 48.5743 32.6215 49.8148 35.4408C51.0553 38.2601 48.3066 38.5655 49.8148 42.5787C50.879 45.4107 48.3066 48.6993 48.3066 48.6993C48.3066 48.6993 43.1321 54.2703 43.5214 58.9236C43.9107 63.5769 48.5607 64.2992 45.7862 69.5793C43.0117 74.8594 47.6287 77.5086 42.2577 83.7373C43.0748 86.194 47.5467 84.5996 49.8148 83.7373C53.7547 82.2394 58.5605 75.5818 57.3974 69.5793C56.2342 63.5769 62.2374 60.5672 59.4912 52.6378C57.6344 47.2766 60.1174 43.6805 57.3974 39.5621C55.5735 36.8005 55.969 31.5541 53.7332 25.1449C51.9446 20.0175 45.7862 12.023 40.561 14.3842M39.8321 25.1449C40.3142 24.6631 42.3642 22.0999 38.8756 21.0102C38.1043 20.647 36.1767 20.1499 33.8466 20.6614M40.561 14.3842C41.4417 15.1714 42.3618 16.7121 42.2577 17.6493M11.0439 66.1897C11.4293 69.8235 15.8262 73.0442 16.4853 77.4391M16.8267 59.8815C17.5529 60.5893 18.7874 62.4629 17.916 64.2948M32.3202 15.7702C29.6423 15.2762 24.0282 14.9606 22.995 17.6493M51.8793 67.6545C54.8404 74.6203 49.3556 78.4436 48.3066 80.6168M45.7862 22.3965C47.129 23.1284 49.8148 25.3294 49.8148 28.2782M11.0439 38.6516C9.92666 40.5472 8.77698 42.54 9.25028 45.1947C9.80023 48.2791 11.844 51.0417 10.5471 52.6378M51.8793 50.6546C50.1857 52.054 47.1001 55.458 48.3066 57.8796M55.9168 55.4689C57.0111 57.5022 56.6605 59.8815 54.7674 60.9065" stroke="#B27A0D" stroke-width="1.79365" stroke-linecap="round" stroke-linejoin="round"></path></svg>