<svg width="66" height="64" viewBox="0 0 66 64" fill="none" xmlns="http://www.w3.org/2000/svg"><path d="M15.7239 34.4203C17.2679 38.097 15.632 45.5154 14.6525 47.3655C14.4498 47.7484 14.1941 47.9356 13.9146 47.987C13.8849 48.8742 13.8434 51.3072 13.9146 53.9415C13.9858 56.5758 18.6314 58.1837 20.9454 58.6584V63.1484H12.4229C11.4651 63.1484 9.44864 63.3282 8.47877 62.1713C7.50891 61.0143 9.10018 56.7568 10.0305 54.3865C11.0003 51.9153 11.9091 49.1125 12.4229 47.3655C12.1006 47.0895 11.8129 46.7678 11.6054 46.4948C10.788 45.6241 11.0648 41.3702 9.06061 36.865C7.45729 33.2608 8.00467 29.631 8.47877 28.2666C6.77201 24.3876 8.80209 21.8662 10.0305 21.0904C9.35812 16.6942 12.8317 16.4571 14.6525 16.8881C14.6525 13.9918 17.1576 13.6987 18.4101 13.9142C18.6488 11.2216 21.5432 11.5855 22.9605 12.104C24.3349 9.2459 28.5478 9.54258 29.8134 11.2635C31.93 8.5932 34.4221 9.54261 35.5673 10.5524C37.7449 9.12723 39.9997 10.5524 40.9979 12.104C42.9999 10.5524 45.5701 12.8798 46.2723 14.4314C49.5092 14.0693 50.9938 16.1796 51.3315 17.28C54.3128 18.1126 54.991 21.2752 54.9574 22.7524C57.5761 24.4982 55.1588 30.6085 55.1588 31.0785C55.1588 31.5485 54.6552 35.0402 54.9574 35.7788C55.2596 36.5174 54.3754 39.4058 54.3754 40.6804V44.8296C54.3754 45.907 53.7915 46.7547 52.7838 46.9414C53.0678 49.2203 53.8835 53.3933 54.3754 55.0743C55.1588 57.7514 57.2222 59.8336 56.0324 63.2941H44.2628V58.6584C45.9892 58.0057 49.5986 56.2376 50.2257 54.3865C50.8528 52.5353 51.0095 48.7191 51.0095 47.0424C49.4201 46.7308 49.9499 42.1806 49.7317 41.3702C49.5136 40.5599 48.6721 37.2875 49.2019 34.4203C49.7317 31.553 47.2926 29.6131 46.2723 29.2422C45.2521 28.8712 43.3694 29.0763 42.4918 28.6546C40.9979 27.9368 39.543 27.096 38.1104 27.4638C36.4988 27.8775 34.5984 27.6159 31.93 27.1654C29.5302 26.7603 25.6039 27.7584 23.8641 28.6546C22.1244 29.5509 20.3069 28.6546 18.4101 29.2422C17.1912 29.6198 14.9201 32.5064 15.7239 34.4203Z" fill="#744C10"></path><path d="M51.0095 47.0424C49.4201 46.7308 49.9499 42.1806 49.7317 41.3702C49.5136 40.5599 48.6721 37.2875 49.2019 34.4203C49.7317 31.553 47.2926 29.6131 46.2723 29.2422C45.2521 28.8712 43.3694 29.0763 42.4918 28.6546C40.9979 27.9368 39.543 27.096 38.1104 27.4638C36.4988 27.8775 34.5984 27.6159 31.93 27.1654C29.5302 26.7603 25.6039 27.7584 23.8641 28.6546C22.1244 29.5509 20.3069 28.6546 18.4101 29.2422C17.1912 29.6198 14.9201 32.5064 15.7239 34.4203C17.2679 38.097 15.632 45.5154 14.6525 47.3655C14.4498 47.7484 14.1941 47.9356 13.9146 47.987M51.0095 47.0424C51.378 47.1147 52.4197 47.0089 52.7838 46.9414M51.0095 47.0424C51.0095 48.7191 50.8528 52.5353 50.2257 54.3865C49.5986 56.2376 45.9892 58.0057 44.2628 58.6584V63.2941H56.0324C57.2222 59.8336 55.1588 57.7514 54.3754 55.0743C53.8835 53.3933 53.0678 49.2203 52.7838 46.9414M54.3754 40.6804C54.3754 41.9549 54.3754 43.4272 54.3754 44.8296C54.3754 45.907 53.7915 46.7547 52.7838 46.9414M54.3754 40.6804C54.3754 39.4058 55.2596 36.5174 54.9574 35.7788M54.3754 40.6804C53.8868 40.8712 52.7517 41.1385 52.1205 40.6804M54.9574 35.7788C54.6552 35.0402 55.1588 31.5485 55.1588 31.0785M54.9574 35.7788C54.0895 35.8002 52.3071 35.7003 52.1205 35.1291M55.1588 31.0785C55.1588 30.6085 57.5761 24.4982 54.9574 22.7524M55.1588 31.0785C54.2847 31.3676 52.2955 31.7723 51.3315 31.0785M54.9574 22.7524C54.991 21.2752 54.3128 18.1126 51.3315 17.28M54.9574 22.7524C53.3771 22.919 49.822 24.0349 48.2444 27.1654M51.3315 17.28C50.9938 16.1796 49.5092 14.0693 46.2723 14.4314M51.3315 17.28C50.7882 18.9797 48.7058 23.1076 44.7229 26.0219M46.2723 14.4314C45.5701 12.8798 42.9999 10.5524 40.9979 12.104M46.2723 14.4314C45.2356 17.1668 42.7293 22.853 40.9979 23.7148M40.9979 12.104C39.9997 10.5524 37.7449 9.12723 35.5673 10.5524M40.9979 12.104C41.086 13.3838 41.0436 16.2833 40.1693 17.6433M35.5673 10.5524C34.4221 9.54261 31.93 8.5932 29.8134 11.2635M35.5673 10.5524C36.9799 11.6815 39.2465 16.0283 37.0122 24.3826M29.8134 11.2635C28.5478 9.54258 24.3349 9.2459 22.9605 12.104M29.8134 11.2635C30.7677 13.1618 32.5271 18.3702 31.93 24.0184M22.9605 12.104C21.5432 11.5855 18.6488 11.2216 18.4101 13.9142M22.9605 12.104C23.9725 15.2457 26.3782 22.0269 27.905 24.0184M18.4101 13.9142C17.1576 13.6987 14.6525 13.9918 14.6525 16.8881M18.4101 13.9142C18.2885 16.1591 19.1134 21.4774 23.3856 24.792M14.6525 16.8881C12.8317 16.4571 9.35812 16.6942 10.0305 21.0904M14.6525 16.8881C14.4557 18.7718 14.8149 23.1508 17.8263 25.5969M10.0305 21.0904C8.80209 21.8662 6.77201 24.3876 8.47877 28.2666M10.0305 21.0904C10.3307 21.6414 11.2295 22.8405 12.4229 23.2291M8.47877 28.2666C8.00467 29.631 7.45729 33.2608 9.06061 36.865M8.47877 28.2666C9.71247 28.5852 12.3863 29.4082 13.212 30.1505M9.06061 36.865C11.0648 41.3702 10.788 45.6241 11.6054 46.4948C11.8129 46.7678 12.1006 47.0895 12.4229 47.3655M9.06061 36.865C10.5254 36.7195 13.4063 36.2985 13.212 35.7788M12.4229 47.3655C11.9091 49.1125 11.0003 51.9153 10.0305 54.3865C9.10018 56.7568 7.50891 61.0143 8.47877 62.1713C9.44864 63.3282 11.4651 63.1484 12.4229 63.1484C13.189 63.1484 18.4238 63.1484 20.9454 63.1484V58.6584C18.6314 58.1837 13.9858 56.5758 13.9146 53.9415C13.8434 51.3072 13.8849 48.8742 13.9146 47.987M12.4229 47.3655C12.894 47.7689 13.4389 48.0745 13.9146 47.987" stroke="#3B2607" stroke-width="1.28118" stroke-linecap="round" stroke-linejoin="round"></path></svg>