<svg width="66" height="59" viewBox="0 0 66 59" fill="none" xmlns="http://www.w3.org/2000/svg"><path d="M13.5579 45.528L10.6576 44.2418C9.4942 43.2852 9.08242 41.3333 9.04674 39.2495C9.02296 37.8604 9.16631 36.4127 9.36555 35.1623C9.48441 34.4164 9.62316 33.7406 9.75819 33.1894C8.68191 32.9741 9.01825 29.2879 9.32095 27.4717C9.17518 27.2475 8.70203 26.6914 7.97557 26.2609C7.06748 25.7227 10.8344 20.7786 11.4734 20.1059C12.1125 19.4333 9.65722 18.4915 8.88365 17.0789C8.11008 15.6663 11.0362 13.4465 11.4734 14.0519C11.9107 14.6573 14.3659 14.0855 15.8122 14.0519C16.9692 14.025 20.7787 10.9913 22.5389 9.47779C24.8529 4.50002 31.037 4.98207 33.8398 5.84531C34.4003 5.89017 36.2883 6.05388 39.3557 6.34985C43.1899 6.71982 44.8716 12.1012 45.0734 12.9084C45.2348 13.5542 46.3963 13.7156 46.9568 13.7156C50.6902 11.9667 55.1298 15.9019 55.5334 16.7091C55.7185 16.8082 55.9003 16.9876 56.0771 17.2281C56.9538 17.7764 58.5825 18.1906 59.5694 18.4243C60.8475 18.727 60.5448 21.855 60.5448 22.494C60.5448 23.0764 58.3661 23.156 58.2596 23.6747C58.2707 23.731 58.2812 23.7859 58.2913 23.8394C58.6613 24.5121 58.2913 25.8911 58.2913 26.9674C58.2913 27.8284 57.3496 28.1333 56.8787 28.1781C57.3832 28.9517 56.5424 32.0796 56.3742 32.5841C56.2397 32.9877 55.6055 33.0662 55.3051 33.055C54.7069 33.6267 55.3051 39.5017 55.3051 41.0308C55.3051 42.5599 52.4 42.4069 51.0239 42.254C50.2491 42.1679 49.6682 40.7732 49.3085 39.3251C49.0292 38.2011 48.8832 37.045 48.8832 36.4437C48.8832 35.0675 50.4123 30.6334 48.8832 30.6334C47.3542 30.6334 45.8252 28.9515 43.8374 28.9515C41.8497 28.9515 35.2749 29.8688 32.6755 30.6334C30.0762 31.3979 26.2536 30.6334 23.5014 28.9515C21.2996 27.606 17.6911 29.5121 16.1621 30.6334C16.1111 31.7037 16.0397 34.1808 16.1621 35.5263C16.2767 36.7877 15.5314 38.0491 14.7001 39.504C14.4229 39.989 14.1362 40.4956 13.8686 41.0308C13.6228 41.5224 13.4887 42.0342 13.4309 42.5322C13.2874 43.7687 13.4815 44.61 13.5579 45.528Z" fill="#362424"></path><path d="M16.1621 30.6334C16.1111 31.7037 16.0397 34.1808 16.1621 35.5263C16.2767 36.7877 15.5314 38.0491 14.7001 39.504M16.1621 30.6334C17.6911 29.5121 21.2996 27.606 23.5014 28.9515C26.2536 30.6334 30.0762 31.3979 32.6755 30.6334C35.2749 29.8688 41.8497 28.9515 43.8374 28.9515C45.8252 28.9515 47.3542 30.6334 48.8832 30.6334M16.1621 30.6334C13.0247 29.2881 10.5856 31.7769 9.75819 33.1894M48.8832 30.6334C50.4123 30.6334 48.8832 35.0675 48.8832 36.4437C48.8832 37.045 49.0292 38.2011 49.3085 39.3251M48.8832 30.6334C50.4993 30.6168 54.0463 31.0779 55.3051 33.055M55.3051 33.055C54.7069 33.6267 55.3051 39.5017 55.3051 41.0308C55.3051 42.5599 52.4 42.4069 51.0239 42.254C50.2491 42.1679 49.6682 40.7732 49.3085 39.3251M55.3051 33.055C55.6055 33.0662 56.2397 32.9877 56.3742 32.5841C56.5424 32.0796 57.3832 28.9517 56.8787 28.1781M56.8787 28.1781C57.3496 28.1333 58.2913 27.8284 58.2913 26.9674C58.2913 25.8911 58.6613 24.5121 58.2913 23.8394M56.8787 28.1781C56.8787 25.872 51.0867 22.8341 48.1906 21.6033M58.2913 23.8394C57.9214 23.1668 60.5448 23.1331 60.5448 22.494C60.5448 21.855 60.8475 18.727 59.5694 18.4243C58.2913 18.1216 55.937 17.5163 55.5334 16.7091M58.2913 23.8394C57.8949 21.7426 56.7882 17.3811 55.5334 16.7091M55.5334 16.7091C55.1298 15.9019 50.6902 11.9667 46.9568 13.7156C46.3963 13.7156 45.2348 13.5542 45.0734 12.9084C44.8716 12.1012 43.1899 6.71982 39.3557 6.34985C36.2883 6.05388 34.4003 5.89017 33.8398 5.84531C31.037 4.98207 24.8529 4.50002 22.5389 9.47778C20.7787 10.9913 16.9692 14.025 15.8122 14.0519C14.3659 14.0855 11.9107 14.6573 11.4734 14.0519C11.0362 13.4465 8.11008 15.6663 8.88365 17.0789C9.65722 18.4915 12.1125 19.4333 11.4734 20.1059C10.8344 20.7786 7.06748 25.7227 7.97557 26.2609C8.70203 26.6914 9.17518 27.2475 9.32095 27.4717M9.32095 27.4717C9.01825 29.2879 8.68191 32.9741 9.75819 33.1894M9.32095 27.4717C9.64954 25.7457 11.2691 22.3619 15.194 19.9401M9.75819 33.1894C9.62316 33.7406 9.48441 34.4164 9.36555 35.1623M19.2034 18.1433C19.0881 19.1429 19.2726 21.0728 20.9335 20.796C23.0095 20.45 30.2755 21.3342 30.9675 18.6047C33.4536 18.515 38.7486 18.4432 40.0404 18.8738M19.2034 18.1433C17.6577 18.6195 16.3294 19.2396 15.194 19.9401M19.2034 18.1433C19.7294 17.1422 20.4683 15.9618 21.3855 14.7683M40.0404 18.8738C41.655 19.412 43.1159 23.564 47.1911 22.5645L48.1906 21.6033M40.0404 18.8738C40.8945 17.5577 42.2726 14.5638 40.9516 13.117M48.1906 21.6033C48.0841 20.514 48.1699 18.0101 49.3651 16.7091M36.1552 8.91032C30.034 6.21699 24.6089 10.5738 21.3855 14.7683M25.7367 14.7683C28.2922 13.1695 34.386 10.1684 38.3175 10.9547M49.3085 39.3251C50.2932 39.7177 52.344 40.0023 52.6693 38M14.7001 39.504C14.4229 39.989 14.1362 40.4956 13.8686 41.0308C13.6228 41.5224 13.4887 42.0342 13.4309 42.5322M14.7001 39.504C13.1603 39.1861 9.93785 37.8729 9.36555 35.1623M9.36555 35.1623C9.16631 36.4127 9.02296 37.8604 9.04674 39.2495M13.4309 42.5322C13.2874 43.7687 13.4815 44.61 13.5579 45.5279L10.6576 44.2418C9.4942 43.2852 9.08242 41.3333 9.04674 39.2495M13.4309 42.5322C12.0704 42.2611 9.28891 41.2252 9.04674 39.2495M15.194 19.9401C14.5647 18.8174 13.8073 16.3916 15.8122 15.6701C18.3183 14.7683 20.2322 14.7683 21.3855 14.7683M33.8398 16.7091C35.2255 16.413 38.061 15.6104 38.3175 14.7683M52.6693 17.6531C53.624 18.8183 55.5334 21.4177 55.5334 22.494" stroke="#1E1404" stroke-width="1.28118" stroke-linecap="round" stroke-linejoin="round"></path><path d="M23.5015 28.9516C21.2997 27.6061 17.6912 29.5122 16.1622 30.6335C13.0249 29.2882 10.5857 31.777 9.7583 33.1895C8.68203 32.9742 9.14879 28.7013 9.32107 27.4718C9.32107 20.0639 19.2036 18.1434 19.2036 18.1434C19.0882 19.143 19.2728 21.0729 20.9336 20.7961C23.0096 20.4501 30.2756 21.3343 30.9676 18.6048C33.4537 18.5151 38.7488 18.4433 40.0405 18.8739C41.6552 19.4121 43.1161 23.5641 47.1912 22.5646L48.1907 21.6034C51.0868 22.8342 56.8789 25.8721 56.8789 28.1782C57.3834 28.9518 56.5425 32.0797 56.3744 32.5842C56.2398 32.9878 55.6056 33.0663 55.3053 33.0551C54.0464 31.078 50.4995 30.6169 48.8834 30.6335C47.3543 30.6335 45.8253 28.9516 43.8376 28.9516C41.8498 28.9516 35.275 29.8689 32.6757 30.6335C30.0763 31.398 26.2537 30.6335 23.5015 28.9516Z" fill="#1776CF" stroke="#1E1404" stroke-width="1.28118"></path></svg>