<svg width="66" height="59" viewBox="0 0 66 59" fill="none" xmlns="http://www.w3.org/2000/svg"><path d="M43.0624 30.2503C39.8136 26.3995 31.7504 25.0476 28.3016 25.5701C25.3179 26.0222 23.0381 27.0518 21.6917 28.8218C20.1326 30.8714 21.2164 38.1443 17.299 42.753C15.5921 44.7611 13.8818 47.8544 13.8818 51.3746C13.8818 54.8949 14.4175 56.9723 12.7807 57.4373C10.1636 58.1807 8.88998 55.4117 8.88998 53.7976C8.88998 50.1511 9.35016 49.0977 8.88998 47.8008C8.70691 46.263 8.56924 43.4452 8.47657 42.1369C7.62717 41.354 6.17323 39.4593 7.15269 38.1443C6.10172 37.537 4.48879 35.1081 6.44488 30.2503C5.76765 29.1543 4.81952 26.6838 6.44488 25.5701C5.81568 24.4532 5.48412 21.4194 9.54254 19.3412C9.03812 17.8862 9.20039 15.0915 13.5338 14.4308C14.296 12.4645 16.9948 8.62635 21.6917 9.00387C22.5451 8.06006 24.793 6.58844 26.737 6.17242C30.1551 5.44096 35.5853 6.05441 36.5291 8.06002C38.8155 7.54061 41.3562 8.06002 43.0624 10.8409C44.9164 10.8409 46.2823 11.7365 46.9032 13.2274C48.7497 13.5293 50.0356 14.8337 50.354 17.1492C51.9581 17.6859 54.5469 20.4243 53.4845 24.8999C53.6663 25.1742 54.6157 26.5678 54.678 26.6549C55.5065 27.8149 57.2987 31.0747 57.4488 39.1828C57.5262 43.3639 57.2443 46.0677 56.8295 48.1384C57.4162 49.6207 57.9576 51.2845 56.0126 51.2845C55.1943 54.7334 52.9785 56.7374 51.765 55.6994C50.2727 54.4229 51.2718 48.763 51.765 45.5951C49.1255 40.077 45.7849 33.4773 43.0624 30.2503Z" fill="#B73418"></path><path d="M51.765 45.5951C49.1255 40.077 45.7849 33.4773 43.0624 30.2503C39.8136 26.3995 31.7504 25.0476 28.3016 25.5701C25.3179 26.0222 23.0381 27.0518 21.6917 28.8218C20.1326 30.8714 21.2164 38.1443 17.299 42.753C15.5921 44.7611 13.8818 47.8544 13.8818 51.3746C13.8818 54.8949 14.4175 56.9723 12.7807 57.4373C10.1636 58.1807 8.88998 55.4117 8.88998 53.7976C8.88998 50.1511 9.35016 49.0977 8.88998 47.8008M51.765 45.5951C52.7428 47.639 53.5449 50.3432 56.0126 51.2845M51.765 45.5951C51.2718 48.763 50.2727 54.4229 51.765 55.6994C52.9784 56.7374 55.1943 54.7334 56.0126 51.2845M56.0126 51.2845C57.9576 51.2845 57.4162 49.6207 56.8295 48.1384M23.5743 17.0242C25.0965 15.9164 25.4417 14.4308 29.2221 12.6314C37.0254 9.85969 43.4334 13.6195 47.7176 17.6859M23.5743 17.0242C20.2211 17.4233 13.7095 19.847 11.4002 25.5701C8.93457 31.6805 7.93396 34.4759 8.47657 42.1369M23.5743 17.0242C26.1312 16.1463 33.7574 14.1251 38.0908 15.578C42.4243 17.031 46.6207 20.8616 48.157 26.7545C50.354 35.1812 51.765 40.3478 56.8295 48.1384M23.5743 17.0242C22.2235 17.6258 18.2666 18.4049 15.5236 24.8434C12.7807 31.282 16.7834 38.1443 8.88998 47.8008M8.88998 47.8008C8.70691 46.263 8.56924 43.4452 8.47657 42.1369M8.47657 42.1369C7.62717 41.354 6.17323 39.4593 7.15269 38.1443C6.10172 37.537 4.48879 35.1081 6.44488 30.2503C5.76765 29.1543 4.81952 26.6838 6.44488 25.5701M6.44488 25.5701C5.81568 24.4532 5.48412 21.4194 9.54254 19.3412M6.44488 25.5701C6.62846 25.3839 7.40991 25.0895 8.2652 25.313M9.54254 19.3412C9.03812 17.8862 9.20039 15.0915 13.5338 14.4308M9.54254 19.3412C9.9204 19.1478 10.8526 19.2056 11.4751 19.5892M13.5338 14.4308C14.296 12.4645 16.9948 8.62635 21.6917 9.00387M13.5338 14.4308C14.1143 14.76 14.809 15.1542 15.5236 16.1286M21.6917 9.00387C22.5451 8.06006 24.793 6.58844 26.737 6.17242C30.1551 5.44096 35.5853 6.05441 36.5291 8.06002M21.6917 9.00387C22.1152 9.33239 22.9946 10.3987 23.1246 12.0358M36.5291 8.06002C38.8155 7.54061 41.3562 8.06002 43.0624 10.8409M36.5291 8.06002C36.1767 8.35085 36.2043 8.74586 35.7848 9.55259M43.0624 10.8409C44.9164 10.8409 46.2823 11.7365 46.9032 13.2274M43.0624 10.8409L42.6597 11.6516M46.9032 13.2274C48.7497 13.5293 50.0356 14.8337 50.354 17.1492C51.9581 17.6859 54.5469 20.4243 53.4845 24.8999M46.9032 13.2274L46.6098 13.8431M53.4845 24.8999C53.6663 25.1742 54.6157 26.5678 54.678 26.6549C55.5065 27.8149 57.2987 31.0747 57.4488 39.1828C57.5262 43.3639 57.2443 46.0677 56.8295 48.1384M53.4845 24.8999C52.6927 23.7049 50.4994 20.3263 47.7176 17.6859M47.7176 17.6859C49.9786 21.6338 55.6754 33.9638 53.9028 43.1875" stroke="#8C1A1A" stroke-width="1.79365" stroke-linecap="round" stroke-linejoin="round"></path></svg>