<svg width="66" height="60" viewBox="0 0 66 60" fill="none" xmlns="http://www.w3.org/2000/svg"><path d="M38.8581 34.2876C33.5548 26.3931 26.2028 25.9261 23.1897 26.6795C20.0015 27.6484 19.8562 31.7638 19.3157 36.8442C18.8155 41.5462 16.0368 44.7573 14.6676 46.5348C15.1 46.9546 14.7757 50.6803 14.6676 51.6172C14.5812 52.3666 16.093 53.06 16.093 54.9492C14.6248 56.7542 13.875 56.5667 12.4854 55.9673C11.9721 55.6698 11.3064 54.6106 11.0279 54.2956C9.90471 53.0251 10.8091 52.0236 11.3582 51.4256C10.3011 50.2511 10.1347 47.8775 10.1836 46.8376C8.50979 45.2226 9.48617 44.2071 10.1836 43.9012C9.91932 42.9616 10.6364 40.3776 11.0279 39.2031C10.4113 37.5587 11.0646 35.1167 11.4683 34.1012C10.8516 27.6412 13.3157 24.6804 14.6248 24.0075C17.4143 19.3094 20.3192 17.8925 21.8608 17.9047C23.7031 13.4251 26.9429 15.4747 26.9429 15.4747C29.7809 11.8336 34.2818 12.7148 36.2804 13.8771C39.5103 13.7596 44.5937 17.2196 46.7316 18.9643C52.6633 21.996 54.9151 31.8712 55.2996 36.4298C55.4643 36.8143 55.9916 38.0281 56.7825 39.8076C57.7711 42.032 56.041 42.9382 54.1118 43.3501C52.1825 43.7621 54.0923 47.7765 54.6242 49.6914C55.1561 51.6062 52.5786 53.0515 51.9758 53.7607C51.373 54.4699 55.4418 56.0238 52.8332 57.9019C51.7439 58.6862 51.1081 58.7245 50.6438 58.4575C49.9963 58.0851 49.6825 57.1188 48.9375 56.7542C47.6584 56.1281 49.4755 51.7838 50.2166 49.6914C50.8094 48.0174 49.0984 43.1942 48.425 40.9919C47.4006 41.0522 44.2819 37.4514 42.8507 35.6435C40.9825 36.427 39.4106 35.066 38.8581 34.2876Z" fill="#EEE0BD"></path><path d="M23.1897 26.6795C26.2028 25.9261 33.5548 26.3931 38.8581 34.2876C39.4106 35.066 40.9825 36.427 42.8507 35.6435M23.1897 26.6795C20.0015 27.6484 19.8562 31.7638 19.3157 36.8442C18.8155 41.5462 16.0368 44.7573 14.6676 46.5348M23.1897 26.6795C20.3516 23.7499 20.8293 19.5201 21.8608 17.9047M42.8507 35.6435C44.2819 37.4514 47.4005 41.0522 48.425 40.9919M42.8507 35.6435C40.8576 27.9413 35.4583 18.5012 26.9429 15.4747M48.425 40.9919C49.0984 43.1942 50.8094 48.0174 50.2166 49.6914C49.4755 51.7838 47.6584 56.1281 48.9375 56.7542C49.6825 57.1188 49.9963 58.0851 50.6438 58.4575C51.1081 58.7245 51.7439 58.6862 52.8332 57.9019C55.4418 56.0238 51.373 54.4699 51.9758 53.7607C52.5786 53.0515 55.1561 51.6062 54.6242 49.6914C54.0923 47.7765 52.1825 43.7621 54.1118 43.3501M48.425 40.9919C49.4564 40.7881 52.3207 40.4136 49.1253 36.8442C46.2771 33.6626 44.8813 33.163 44.0487 29.3917C43.216 25.6205 44.1772 18.9593 36.2804 13.8771M54.1118 43.3501C56.041 42.9382 57.7711 42.032 56.7825 39.8076C55.9916 38.0281 55.4643 36.8143 55.2996 36.4298M54.1118 43.3501C53.2815 43.3505 51.7609 42.4449 52.3207 38.8195M55.2996 36.4298C54.9151 31.8712 52.6633 21.996 46.7316 18.9643C44.5937 17.2196 39.5103 13.7596 36.2804 13.8771M55.2996 36.4298C54.7025 35.9736 53.2709 34.6854 52.3207 33.1821M36.2804 13.8771C34.2818 12.7148 29.7809 11.8336 26.9429 15.4747M26.9429 15.4747C26.9429 15.4747 23.7031 13.4251 21.8608 17.9047M21.8608 17.9047C20.3192 17.8925 17.4143 19.3094 14.6248 24.0075M14.6248 24.0075C13.3157 24.6804 10.8516 27.6412 11.4683 34.1012C11.0646 35.1167 10.4113 37.5587 11.0279 39.2031C10.6364 40.3776 9.91932 42.9616 10.1836 43.9012M14.6248 24.0075C14.1639 25.8144 13.6996 29.9576 14.6248 32.7737C15.826 36.4298 14.3063 42.2327 10.1836 43.9012M10.1836 43.9012C9.48617 44.2071 8.50979 45.2226 10.1836 46.8376M10.1836 46.8376C10.1347 47.8775 10.3011 50.2511 11.3582 51.4256C10.8091 52.0236 9.90471 53.0251 11.0279 54.2956C11.3064 54.6106 11.9721 55.6698 12.4854 55.9673C13.875 56.5667 14.6248 56.7542 16.093 54.9492C16.093 53.06 14.5812 52.3666 14.6676 51.6172C14.7757 50.6803 15.1 46.9546 14.6676 46.5348M10.1836 46.8376C10.6571 47.5045 12.2169 47.7996 14.6676 46.5348" stroke="#D6B563" stroke-width="1.79365" stroke-linecap="round" stroke-linejoin="round"></path></svg>