<svg width="66" height="58" viewBox="0 0 66 58" fill="none" xmlns="http://www.w3.org/2000/svg"><path d="M46.0489 26.7158C47.9093 27.5494 48.6871 30.362 49.1993 35.222C49.7116 40.082 49.6227 43.9109 50.3036 44.449C50.9846 44.9871 51.8138 45.1498 52.3498 44.449C52.8858 43.7482 53.0191 41.3514 53.844 38.6133C54.3985 36.7726 55.513 33.2645 55.8634 32.019C56.364 30.2396 56.5455 28.8779 56.0915 27.3913C55.883 26.7085 55.4532 25.8942 54.8739 25.0473C53.3092 22.7594 50.6541 20.2333 48.3264 19.4176C44.0211 10.4746 27.3117 11.2964 21.6044 13.5932C15.8971 15.89 15.2553 18.6705 14.2634 19.4176C13.2622 20.1718 12.356 21.1296 11.622 22.0927C10.8075 23.1615 10.2052 24.2368 9.92084 25.0473C9.58091 26.0161 8.93959 27.2434 8.85946 29.1762C8.80087 30.5894 9.04229 32.3797 9.92084 34.722C11.0572 37.2254 12.7417 43.4272 13.4956 44.449C14.2432 45.4624 14.9677 45.2596 15.9176 44.9938L15.9414 44.9871C16.903 44.718 16.2553 40.5415 16.7549 37.2254C17.2546 33.9094 17.3316 32.3888 18.9377 30.362C21.0448 28.377 23.7432 27.0417 26.7431 26.2074C33.2191 24.4063 39.6793 25.3444 46.0489 26.7158Z" fill="#2F2F1D"></path><path d="M46.0489 26.7158C47.9093 27.5494 48.6871 30.362 49.1993 35.222C49.7116 40.082 49.6227 43.9109 50.3036 44.449C50.9846 44.9871 51.8138 45.1498 52.3498 44.449C52.8858 43.7482 53.0191 41.3514 53.844 38.6133M46.0489 26.7158C39.6793 25.3444 33.2191 24.4063 26.7431 26.2074M46.0489 26.7158C46.4839 25.9652 47.0238 24.4693 47.3243 23.6308M46.0489 26.7158C46.9058 27.0997 48.3264 25.9255 50.97 29.1762C52.5395 31.1062 53.844 33.6955 53.844 38.6133M18.9377 30.362C15.9414 31.3877 11.3659 31.5223 8.85946 29.1762M18.9377 30.362C17.3316 32.3888 17.2546 33.9094 16.7549 37.2254M18.9377 30.362C21.0448 28.377 23.7432 27.0417 26.7431 26.2074M9.92084 25.0473C9.33236 26.7244 7.84068 29.1762 9.92084 34.722C11.0572 37.2254 12.7417 43.4272 13.4956 44.449C14.2495 45.4708 14.9798 45.2561 15.9414 44.9871C16.903 44.718 16.2553 40.5415 16.7549 37.2254M9.92084 25.0473C10.2185 28.4097 21.3838 27.643 26.7431 26.2074M9.92084 25.0473C10.2052 24.2368 10.8075 23.1615 11.622 22.0927M48.3264 19.4176C44.0211 10.4746 27.3117 11.2964 21.6044 13.5932C15.8971 15.89 15.2553 18.6705 14.2634 19.4176M48.3264 19.4176C48.3264 20.0635 48.1109 20.214 47.9603 20.8164M48.3264 19.4176C50.6541 20.2333 53.3092 22.7594 54.8739 25.0473C55.4532 25.8942 55.883 26.7085 56.0915 27.3913C56.5455 28.8779 56.364 30.2396 55.8634 32.019M16.7549 37.2254C15.0304 37.8834 13.2527 39.125 10.8774 37.2254M53.844 38.6133C54.3985 36.7726 55.513 33.2645 55.8634 32.019M47.3243 23.6308C46.0983 21.6413 40.2808 20.8382 33.6386 21.1801C25.908 21.578 24.3885 24.5206 18.4493 23.3779C15.6433 22.838 12.9999 21.7355 11.622 22.0927M47.3243 23.6308C47.605 22.8478 48.1828 21.9705 47.9603 20.8164M47.3243 23.6308C48.9409 22.9939 53.7568 26.2074 55.8634 32.019M11.622 22.0927C12.356 21.1296 13.2622 20.1718 14.2634 19.4176M47.9603 20.8164C47.1552 19.5634 45.6895 17.9559 43.2505 17.1429C39.492 15.89 32.8103 14.5676 25.4325 17.1429C19.8191 19.1022 16.4578 20.37 14.2634 19.4176" stroke="#080707" stroke-width="1.79365" stroke-linecap="round"></path></svg>